<?xml version="1.0" encoding="utf-8" ?><svg xmlns="http://www.w3.org/2000/svg" xmlns:xlink="http://www.w3.org/1999/xlink" width="1024" height="997" viewBox="0 0 1024 997"><path fill="#010000" transform="scale(6.82667 6.82877)" d="M73.1835 17.5867C77.9054 17.1871 80.8254 20.7176 85.3307 23.158C85.0925 29.2464 81.1582 38.0151 80.4193 43.1315C81.0522 44.6395 84.7851 45.1148 86.7016 46.4189C91.9778 50.0092 97.3529 53.2053 101.047 58.6001C101.754 59.6314 101.512 60.6695 102.806 61.3705C104.449 61.0985 107.625 59.7851 109.377 59.1711C113.194 57.8337 118.891 56.4251 122.394 54.6654C122.453 57.1892 123.201 59.9438 123.554 62.5368C124.068 66.307 120.243 68.3636 118.934 65.0599C118.812 64.7522 118.793 61.998 118.786 61.4453C115.172 61.372 112.85 62.3723 109.436 63.3292C107.715 63.8115 105.944 64.0585 104.238 64.6292C104.161 65.2644 104.278 65.5795 104.46 66.1764C106.136 71.5971 104.938 78.7735 103.834 84.2157C103.677 84.9903 98.9059 90.0702 98.1989 90.8617C97.9005 93.3012 97.8033 93.7936 96.3653 95.8469C92.1543 101.859 86.0398 101.051 79.5207 100.893C80.6402 105.366 81.3253 105.978 86.0943 106.272C87.9304 106.385 89.567 107.629 89.2724 109.642C88.4039 110.881 86.2854 111.031 84.7924 111.297C84.7635 111.87 85.7696 113.229 86.1374 113.793L84.2504 116.169C83.045 115.603 81.6369 114.609 80.5017 113.859C80.5137 114.588 80.6133 116.879 80.3699 117.399C78.538 121.318 76.0545 117.114 75.309 115.245C74.5292 117.01 74.0194 118.938 71.7834 118.829C69.6954 117.628 70.8976 114.412 71.5417 112.745C65.6859 115.168 62.2186 112.235 68.1193 108.138C69.6983 107.583 72.1397 106.925 73.1499 105.608C74.9175 103.303 72.7016 99.9463 72.0086 97.6327C71.7848 96.8853 71.64 95.162 71.565 94.3462C70.4963 93.0875 69.619 91.9076 68.6384 90.5848C66.9698 90.4463 64.0264 90.777 62.5321 90.2516C59.0136 89.0143 53.69 82.9251 52.033 79.7256C49.14 82.7809 45.7385 88.6605 42.6342 92.6167C44.0529 92.7422 45.6494 92.6598 46.9154 93.3016C48.8558 94.1757 46.3708 96.276 46.4427 97.4006C46.5223 98.6467 47.5638 99.1004 46.5649 100.608C45.1376 101.625 43.5303 100.147 42.0871 100.381C41.908 101.872 42.0854 102.298 40.7582 103.074C37.9884 103.44 37.4002 100.819 36.591 99.1537C34.9293 98.9802 30.699 102.975 28.3727 101.801C27.2228 99.6395 31.0432 97.6366 32.5915 96.6688C30.81 96.9188 28.0977 97.2661 26.3091 96.9857C25.4756 96.855 25.2931 96.3717 24.9525 95.7709C25.4221 92.1063 33.7326 92.9983 35.8381 91.0438C39.2043 87.9191 42.4157 81.6065 45.2371 77.8863C41.7756 75.6867 38.068 73.201 37.9862 68.6469C37.919 64.9085 39.8082 62.2756 39.9923 58.5095C40.7641 57.2451 43.4535 54.4062 44.5865 53.2805C53.4628 44.462 63.149 42.4474 75.248 42.5366C76.0095 39.6108 79.6729 28.6846 79.6846 26.2766C78.5612 23.3266 69.6134 21.218 73.1835 17.5867Z"/><path fill="#FEFEFE" transform="scale(6.82667 6.82877)" d="M72.6789 43.0921C74.0484 42.8965 74.3374 43.5179 75.6101 43.9013C78.0293 44.6301 79.7932 44.6643 82.2282 45.5067C82.3063 46.5494 82.3615 47.5938 82.3937 48.639C81.5967 49.6611 80.3645 50.6679 80.0701 51.9356C79.8231 52.999 80.3777 54.1037 81.4987 54.2896C81.9637 53.4231 81.1605 52.6017 81.385 52.0545C81.7739 51.1064 83.5651 49.4751 83.7283 48.4123C83.8208 47.8103 83.3765 47.0025 83.4489 46.0487C85.4604 46.0228 95.1652 53.2363 96.8702 55.0807C96.5907 55.5414 96.3164 56.0053 96.0474 56.4723C95.543 57.3556 95.2644 57.7923 95.5287 58.7584C96.6413 58.5907 97.4181 56.8248 97.9046 55.9022C102.182 62.5982 106.244 71.1094 103.36 79.6214C103.053 80.5268 100.011 81.5173 100.275 83.2885C100.858 83.3636 103.412 81.5977 104.151 81.1261C102.254 86.1071 99.975 86.4074 97.9877 89.9096C97.5919 88.6387 96.641 87.0232 95.9873 85.8174C96.726 85.0074 97.2927 84.0559 97.6531 83.0205C97.963 82.1541 98.2623 81.1711 97.8483 80.3043C97.2606 79.7994 97.5266 79.9278 96.757 79.792C95.7651 80.8273 96.8359 83.6146 95.1509 84.6044C94.6076 84.3251 91.5889 81.2647 90.4874 80.385C91.835 78.9067 92.2407 78.1535 92.9356 76.286C92.398 74.4129 91.9718 73.6423 91.0555 71.9815C92.6357 69.4412 94.9451 67.5148 96.1579 65.221L96.0617 65.3324L96.1555 64.9393L96.0086 65.3689L95.5824 65.2346C92.9505 67.1035 91.1236 69.7096 89.722 72.5741C86.2949 67.7958 81.4534 66.0297 76.1867 64.1262L72.0264 62.6816C72.3536 61.2926 75.4841 55.0647 71.9407 55.4077C71.5749 56.3624 72.3609 56.8771 72.144 57.6826C71.6241 59.6133 71.1344 60.5145 70.8941 62.5855C66.9658 61.3991 63.0023 61.4126 59.1944 63.2267C56.1913 64.6574 55.1634 67.4845 56.6946 70.4842C53.8712 72.96 53.077 74.6647 52.045 78.1075C48.5925 76.5014 44.581 77.101 41.5559 74.2883C37.4386 70.4601 38.2206 65.797 40.7521 61.3392C40.7506 61.3418 40.4068 59.9826 40.442 59.8584C41.218 57.12 44.7779 53.8243 46.7051 51.8874C48.712 54.7489 49.955 54.3768 53.1352 55.812C53.6739 56.9121 53.7729 58.2047 54.7445 58.941C55.423 58.4761 54.7476 57.4349 55.4547 56.2774C56.9615 56.2651 57.7376 58.125 59.0854 58.3464L59.1449 57.9456C58.8808 57.3445 58.0222 55.9027 57.4212 55.6582C54.0311 54.2787 50.367 54.0104 47.5495 51.4452C52.145 47.6529 56.5122 45.5166 62.4559 44.2205C62.6895 44.0817 64.794 44.0498 64.883 44.2618C65.794 46.4324 67.8761 47.5448 69.8507 48.9524C70.1618 50.3714 70.0668 51.0599 71.4888 51.5812C71.9859 50.5497 71.1464 50.5935 71.4405 49.4836C72.3451 49.142 72.7406 49.8035 73.8709 49.5487L73.9197 49.0816C72.3483 47.4433 69.4615 48.2752 65.8596 43.8844C68.1386 43.6731 70.4123 43.409 72.6789 43.0921Z"/><path fill="#010000" transform="scale(6.82667 6.82877)" d="M49.1217 59.6148C49.8381 60.0369 50.1647 61.1796 50.5006 62.0061C51.2464 62.1354 53.4657 60.866 54.2839 60.4578C53.7149 61.3471 52.807 62.087 52.5598 63.0421C54.0091 64.5483 53.6145 65.2957 53.3938 67.2433C50.5416 63.4426 49.9407 62.6391 45.0055 63.7857C43.7539 64.5764 43.0911 65.2514 42.0354 66.2577C42.0511 64.8802 41.5863 63.1251 41.8223 62.2863C42.7135 62.0332 42.5541 62.9113 43.6352 62.858C44.1767 61.6637 43.2358 62.1398 43.6167 60.688C44.662 60.3397 44.7192 61.9487 45.9962 61.9634C46.3792 61.442 46.2104 61.1142 46.1603 60.3469L46.4963 60.0172C47.5421 60.2018 47.316 61.2524 48.4129 61.7598C48.7196 61.3854 48.8653 60.3423 49.1217 59.6148Z"/><path fill="#010000" transform="scale(6.82667 6.82877)" d="M89.7554 53.5316C89.9171 53.5738 90.5268 53.8329 90.5262 54.0029C90.5176 56.5003 91.2994 59.1437 91.8087 61.5966C93.0885 61.0979 95.4975 60.4253 96.6602 61.271L96.5446 61.6561C94.1451 62.9785 92.5473 60.652 91.264 64.5785C90.7178 65.7428 89.9256 67.7477 88.8591 68.3225C88.4205 67.5335 89.4238 65.3536 89.8102 64.5032C91.911 59.8796 88.2632 58.7968 89.7554 53.5316Z"/><path fill="#010000" transform="scale(6.82667 6.82877)" d="M78.2887 54.7773L79.172 55.1175C79.4983 55.9554 79.2331 56.1581 78.9298 57.2014C79.6916 60.6214 84.2644 58.3943 82.6809 64.8479C82.4438 64.8207 82.0436 64.713 81.7963 64.6554C81.1889 63.5903 81.7475 61.9196 81.2362 61.364C78.6046 58.5044 76.196 60.2211 78.2887 54.7773Z"/><path fill="#010000" transform="scale(6.82667 6.82877)" d="M99.4601 73.5838C100.302 71.9218 100.383 71.2979 100.698 69.51L101.059 69.3331L101.488 69.5738C101.967 70.6106 101.31 72.1294 100.935 73.1556C99.9227 74.493 100.587 75.2039 101.148 76.6875L100.911 76.8673C99.595 76.4947 97.2914 73.0359 96.3658 71.8766C95.6405 70.9682 95.4483 70.2496 95.5945 69.1135C96.3023 69.3719 97.9559 72.2232 99.4601 73.5838Z"/><path fill="#010000" transform="scale(6.82667 6.82877)" d="M65.2947 51.9501L65.6969 52.1483C66.0494 55.3972 65.729 54.3667 68.405 56.7929L68.3858 57.096C68.3355 57.1094 68.2851 57.1222 68.2345 57.1344C67.0579 57.4148 66.5105 57.0625 65.539 56.4668C65.1207 55.8317 64.2572 54.8927 63.7296 54.2885C62.8697 54.2886 61.3577 54.364 60.7107 53.8465L60.854 53.6289C62.8725 52.6542 63.7115 53.2228 65.2947 51.9501Z"/><path fill="#010000" transform="scale(6.82667 6.82877)" d="M85.2221 50.6572C85.3039 50.6784 85.3851 50.7022 85.4655 50.7284C87.5257 51.4052 88.4226 54.8254 87.7411 56.7979C87.2225 56.3667 85.3433 51.2515 85.2221 50.6572Z"/><path fill="#FEFEFE" transform="scale(6.82667 6.82877)" d="M66.2776 63.0955C71.5583 63.213 82.4967 67.3119 86.6742 71.0387C90.0505 74.0507 88.7919 76.0852 86.1088 78.845C86.0206 77.0135 86.0128 75.5909 85.2092 73.8933C84.4947 72.3839 81.6044 68.9342 80.1337 68.4109L79.7471 68.6338C80.5323 70.726 83.9554 72.5561 84.6187 76.1934C84.6009 77.1613 84.7217 78.2441 84.0408 78.9109L83.5688 78.8988C82.8793 78.2896 82.3961 77.6014 81.8396 76.8724L81.4898 76.8343C80.3877 81.058 77.5938 83.7729 73.11 84.6657C67.5337 85.2171 66.6647 78.6489 64.0974 75.2844C62.3172 72.9515 54.6681 70.3695 57.9881 66.2176C59.6343 64.1589 63.6734 63.2787 66.2776 63.0955Z"/><path fill="#010000" transform="scale(6.82667 6.82877)" d="M68.2411 67.8603C68.7005 68.072 68.5624 67.9976 68.8763 68.437C68.653 68.923 68.4674 69.2726 68.2015 69.7371L68.4209 70.1421C70.7807 71.3389 70.0089 69.6666 72.0864 69.5825L72.3102 69.9077C71.9827 70.6196 71.6191 71.1224 71.184 71.7634C71.3945 72.4214 71.2497 72.1987 71.8538 72.6374C72.5699 72.6493 73.1057 72.3949 73.7702 72.143L74.1593 72.3269C74.2612 73.4867 72.4842 73.345 73.0539 74.7114C74.1352 75.1706 74.7547 74.3084 75.8256 74.6883L75.8801 75.2092C75.3116 76.1386 74.358 75.7154 73.4362 76.6188L73.4867 77.1167C73.8529 77.6287 75.1176 77.8896 75.841 78.1692L76.0137 78.6108L75.6729 79.1682C75.0378 79.0771 74.1023 78.7847 73.5488 78.6831C73.0158 78.5853 72.2875 79.869 71.2992 79.9138C71.0228 79.1095 72.3727 77.2134 71.9582 75.7902C70.3209 70.1687 64.6814 71.8046 63.1886 70.2879C63.6733 69.4548 63.8891 70.1246 64.8123 69.6001C64.885 69.5588 64.8502 68.7762 65.3977 68.2528L65.9203 68.2871C66.1754 68.7035 66.2846 68.9116 66.4785 69.3596C67.1767 69.1784 67.7346 68.418 68.2411 67.8603Z"/><path fill="#FEFEFE" transform="scale(6.82667 6.82877)" d="M86.2465 79.4637C86.6956 79.4176 87.1736 79.4501 87.5454 79.7093C91.9961 82.813 95.8031 86.5979 97.1689 91.8565C95.9179 94.5152 91.6897 100.267 88.3363 99.3722C81.9846 98.6534 78.6886 103.759 80.5848 92.7847C81.2986 88.653 81.9327 85.9591 79.9392 82.0824L81.7143 79.5913C83.8502 80.9865 83.9994 80.6173 86.2465 79.4637Z"/><path fill="#FEFEFE" transform="scale(6.82667 6.82877)" d="M79.1199 82.9291C79.699 83.6405 80.0196 85.6529 79.9864 86.5616C79.8255 90.9602 78.7405 95.26 78.9596 99.699C78.9608 99.7216 78.3977 100.313 78.3104 100.78C76.9132 108.257 86.2909 107.076 87.9144 109.302C87.0913 110.005 82.6289 109.658 81.4166 109.557C82.1583 110.752 83.8796 112.879 84.4009 114.165C84.4408 114.263 84.2159 114.482 84.1151 114.607C82.3592 114.368 81.1353 111.627 79.7553 111.194C79.1391 112.769 80.9537 116.068 79.3984 117.506C76.9491 117.746 76.4497 114.193 76.0402 112.295C74.6626 112.804 73.9052 116.397 72.1703 117.805L71.9265 117.621C71.8918 115.203 74.208 111.469 73.4239 110.481C71.3182 110.38 67.7242 114.006 66.2428 111.983C66.5245 109.602 73.1394 108.097 73.9344 106.902C76.4559 103.11 72.5641 98.226 72.0454 94.4715C74.531 91.1123 74.3547 89.8304 74.6998 85.5845C74.9559 85.2178 77.9655 83.8083 79.1199 82.9291Z"/><path fill="#FEFEFE" transform="scale(6.82667 6.82877)" d="M57.1169 71.8978C58.3278 72.0487 58.7234 72.6525 59.712 73.1205C66.6985 76.4277 64.0468 85.8121 73.1441 85.5347C73.4056 87.4393 73.5881 91.8088 71.7409 92.8917C70.9546 92.5903 71.0636 92.4481 70.5648 91.6096L69.4612 89.829C66.5323 89.5421 63.278 90.3112 61.0043 88.4114C57.3845 85.387 54.1369 82.8709 53.2074 78.1447C53.8056 75.3987 54.8549 73.5589 57.1169 71.8978Z"/><path fill="#010000" transform="scale(6.82667 6.82877)" d="M58.1579 76.324C58.5713 76.1485 58.4013 76.1906 58.9173 76.2571C58.884 76.7775 57.9525 77.8352 57.5657 78.3504C57.7831 79.5215 58.1616 81.0321 59.5437 81.0715C60.4092 80.7365 60.8671 80.0077 61.4471 79.2745L61.8082 79.4008C62.6018 80.2877 63.5781 81.7204 63.5626 82.9234C60.7323 81.7888 60.5606 83.3299 57.7095 82.5583C55.8343 82.0507 56.4046 79.9955 55.9603 78.6022C55.8452 78.2413 55.1619 77.4689 54.8802 76.9329C56.1688 76.7702 56.9019 76.6457 58.1579 76.324Z"/><path fill="#FEFEFE" transform="scale(6.82667 6.82877)" d="M46.0574 77.914C46.9723 78.0185 49.8364 78.7293 50.872 78.9607C48.5391 81.6693 46.6979 85.4722 44.2402 88.2054C43.4113 89.1272 41.2651 91.9186 41.1428 93.0944C42.3573 94.7636 45.7248 93.235 46.4292 94.8781L46.148 95.2717C44.9728 95.8828 42.728 96.0622 41.303 96.2875C42.3921 96.9006 44.6924 97.998 45.0858 99.1194L44.7579 99.3783C42.1154 99.1018 40.7757 98.1118 38.6937 96.5962C39.5547 98.7809 40.2062 100.558 40.9038 102.797C39.3604 101.55 38.5883 100.868 37.7455 99.071C37.7301 99.0114 37.7143 98.952 37.698 98.8927C37.3945 97.7839 37.4609 97.7552 36.6813 97.3103C34.1638 97.2907 32.2683 101.469 29.7978 100.745C30.2082 99.3431 34.2254 97.2682 34.0716 95.645C32.0258 95.2831 28.9927 96.4306 26.5357 95.787C26.2933 94.4028 33.5323 93.3268 34.8586 92.3884C39.2963 89.2486 42.9228 82.478 46.0574 77.914Z"/><path fill="#FEFEFE" transform="scale(6.82667 6.82877)" d="M73.9337 18.2272C77.1985 18.1348 81.736 21.9946 84.5278 23.9794C83.0293 27.9529 82.048 33.4446 80.9289 37.5723C80.52 39.0806 79.7978 42.3662 79.1447 43.5993L75.6711 42.8792C78.0998 38.4827 78.8311 32.77 80.4181 28.038C82.1998 22.7253 73.206 22.6426 73.1659 18.9101L73.9337 18.2272Z"/><path fill="#FEFEFE" transform="scale(6.82667 6.82877)" d="M120.608 56.5378C120.681 56.5566 121.028 56.8041 121.115 56.8636C121.862 58.5297 123.217 63.8332 121.134 64.8649C120.003 64.0748 119.605 61.2721 119.343 59.9233C115.339 60.5292 112.201 61.4121 108.306 62.4775C107.128 62.8696 104.171 64.0827 103.209 63.557L103.222 63.0514C105.391 60.7941 117.129 57.5707 120.608 56.5378Z"/><path fill="#FEFEFE" transform="scale(6.82667 6.82877)" d="M89.6501 72.634C91.0193 73.7322 91.1331 74.5707 91.5914 76.2498C90.9942 78.0187 90.8384 78.3588 89.8278 79.9718C89.7752 79.9384 89.7227 79.9048 89.6703 79.8709C88.869 79.3496 88.3058 79.0177 88.7906 78.0142C89.9596 75.5942 90.2188 75.2788 89.6501 72.634Z"/></svg>