<svg width="1280" height="591" viewBox="0 0 1280 591" fill="none" xmlns="http://www.w3.org/2000/svg">
<rect width="1280" height="590.931" fill="#DAEDDD"/>
<path fill-rule="evenodd" clip-rule="evenodd" d="M740.609 276.714C739.738 276.885 739.138 277.643 739.268 278.382C739.398 279.131 740.519 280.307 741.759 281.008C742.999 281.7 746.03 283.027 748.511 283.937C750.981 284.856 754.022 285.349 755.262 285.036C756.503 284.733 757.483 284.155 757.443 283.766C757.403 283.378 753.952 281.558 749.781 279.719C745.61 277.889 741.479 276.534 740.609 276.714ZM971.008 283.766C970.648 284.42 970.738 285.245 971.208 285.596C971.679 285.956 975.219 286.345 979.07 286.458C983.738 286.604 986.156 286.31 986.322 285.577C986.462 284.97 985.112 284.041 983.322 283.51C981.531 282.98 978.18 282.553 975.87 282.563C973.539 282.572 971.378 283.112 971.008 283.766ZM432.148 288.032C431.808 288.42 431.728 289.274 431.978 289.928C432.288 290.752 435.039 291.112 440.931 291.112C445.602 291.112 449.413 290.79 449.393 290.402C449.373 290.013 448.583 289.169 447.642 288.534C446.702 287.899 442.971 287.368 439.35 287.349C435.729 287.33 432.488 287.643 432.148 288.032ZM461.486 295.615C461.506 296.525 463.196 298.667 465.237 300.373C467.268 302.07 469.948 303.463 471.189 303.454C473.429 303.435 473.429 303.416 471.589 300.828C470.578 299.397 468.438 297.245 466.837 296.06C465.247 294.866 463.377 293.909 462.686 293.928C461.996 293.937 461.456 294.705 461.486 295.615ZM969.208 296.724C968.858 297.283 968.878 298.496 969.258 299.406C969.648 300.316 970.428 301.53 971.008 302.089C971.589 302.648 973.419 303.577 975.069 304.146C977.87 305.113 977.68 305.189 972.319 305.255C969.158 305.293 966.347 305.757 966.067 306.279C965.747 306.895 950.653 307.141 923.056 306.99C899.68 306.857 880.545 306.43 880.545 306.042C880.545 305.653 878.294 305.331 875.544 305.331C872.793 305.331 870.362 305.653 870.142 306.042C869.922 306.43 858.559 307.094 844.886 307.501C828.315 308.007 819.696 307.937 819.029 307.293C818.409 306.696 814.958 306.553 810.027 306.904C805.625 307.226 801.574 307.805 801.024 308.203C800.474 308.591 769.186 309.189 731.506 309.52C693.826 309.852 651.966 310.591 638.482 311.16C624.999 311.738 610.145 312.089 605.473 311.956C600.802 311.814 592.92 311.7 587.969 311.7C583.018 311.691 564.003 312.07 545.708 312.535C519.291 313.217 512.449 313.141 512.449 312.203C512.449 311.35 510.119 311.018 504.147 311.018C498.836 311.018 495.395 311.445 494.595 312.203C493.674 313.075 486.583 313.454 467.638 313.634C450.853 313.795 441.581 313.539 440.931 312.895C440.26 312.241 422.466 311.928 387.417 311.975C358.529 312.004 333.853 311.909 332.583 311.767C331.302 311.615 329.722 310.847 329.082 310.061C328.431 309.274 326.661 308.099 325.151 307.454C323.64 306.809 321.05 306.279 319.399 306.279C317.539 306.279 315.238 307.264 313.328 308.885C311.637 310.317 309.567 313.198 308.716 315.283C307.716 317.767 307.386 320.544 307.776 323.341C308.096 325.682 309.046 328.563 309.877 329.739C310.717 330.914 312.967 332.516 314.898 333.293C316.828 334.071 319.749 334.715 321.4 334.715C323.05 334.715 326.071 333.966 328.101 333.056C330.142 332.146 333.293 330.014 335.103 328.317C336.924 326.62 338.404 324.705 338.394 324.051C338.394 323.217 341.825 322.649 350.147 322.108C356.619 321.691 382.836 321.17 408.422 320.961C434.009 320.743 466.747 320.336 481.191 320.061C498.236 319.729 507.628 319.881 507.948 320.497C508.218 321.018 510.929 321.445 513.95 321.445C516.97 321.445 519.451 321.018 519.451 320.497C519.451 319.881 532.374 319.549 556.211 319.539C576.426 319.539 594.551 319.53 596.471 319.521C598.392 319.521 617.307 318.819 638.482 317.975C667.56 316.81 677.422 316.696 678.742 317.511C679.923 318.25 687.645 318.601 702.499 318.601C716.952 318.601 724.594 318.26 724.754 317.615C724.914 316.971 736.067 316.393 756.673 315.956L788.341 315.283C787.441 319.568 788.321 320.876 792.432 324.525C795.233 326.999 798.194 329.028 799.024 329.028C800.304 329.028 800.264 328.601 798.774 326.099C797.813 324.478 795.783 321.919 794.272 320.412C792.762 318.895 791.752 317.227 792.022 316.705C792.292 316.184 796.123 315.757 800.524 315.757C805.195 315.757 808.526 316.156 808.526 316.705C808.526 317.227 810.777 317.653 813.528 317.653C816.278 317.653 819.539 317.141 820.779 316.506C822.34 315.72 831.182 315.293 849.537 315.132C864.121 315.009 883.356 314.563 892.298 314.146C905.071 313.549 908.562 313.644 908.552 314.573C908.552 315.227 906.052 317.786 903.011 320.26C899.96 322.734 897.479 325.511 897.509 326.421C897.529 327.331 897.999 328.288 898.55 328.554C899.1 328.81 903.041 325.653 907.302 321.521L915.054 314.013C940.641 314.724 953.014 315.141 959.065 315.407C966.207 315.71 970.398 315.53 971.018 314.876C971.539 314.317 975.48 313.862 979.771 313.862C984.062 313.862 987.563 314.184 987.543 314.573C987.533 314.961 986.182 317.312 984.542 319.786C982.911 322.26 981.571 325.35 981.571 326.658C981.571 327.957 982.131 329.293 982.821 329.616C983.512 329.938 984.972 329.947 986.072 329.634C987.173 329.322 990.734 325.113 993.984 320.279C998.496 313.558 999.906 310.61 999.986 307.729C1000.08 304.089 999.896 303.871 994.575 301.321C991.544 299.871 987.723 298.222 986.072 297.662C984.422 297.103 980.091 296.43 976.46 296.165C972.259 295.871 969.608 296.07 969.208 296.724ZM317.359 315.407C318.549 314.042 319.949 312.914 320.469 312.914C320.979 312.914 322.3 314.402 323.4 316.231C324.5 318.061 326.301 319.758 327.401 320.023C328.501 320.279 329.402 321.141 329.402 321.919C329.402 322.696 328.161 324.213 326.651 325.265C325.141 326.326 322.66 327.179 321.15 327.16C319.639 327.151 317.719 326.487 316.898 325.71C316.068 324.933 315.348 322.857 315.298 321.094C315.228 319.113 316.008 316.971 317.359 315.407ZM849.037 359.881C845.736 360.592 840.705 361.123 837.864 361.085C835.013 361.038 832.092 361.474 831.362 362.043C830.512 362.706 830.322 363.701 830.842 364.773C831.542 366.261 832.582 366.403 839.344 365.92C844.005 365.588 848.907 364.564 851.787 363.313C854.398 362.185 856.539 360.611 856.539 359.834C856.539 359.057 856.199 358.46 855.788 358.507C855.378 358.564 852.338 359.18 849.037 359.881ZM778.338 384.005C777.608 385.569 776.678 386.849 776.268 386.849C775.858 386.849 775.528 388.024 775.548 389.455C775.558 390.887 776.348 393.636 777.298 395.569C778.238 397.494 780.709 400.375 782.77 401.968C784.83 403.56 787.191 404.641 788.021 404.385C788.841 404.119 789.521 403.266 789.521 402.489C789.521 401.712 789.001 400.11 788.361 398.934C787.721 397.759 786.49 396.337 785.61 395.768C784.74 395.2 783.21 392.849 782.209 390.555C781.219 388.252 780.609 385.199 780.869 383.768C781.119 382.337 780.949 381.162 780.489 381.162C780.029 381.162 779.059 382.441 778.338 384.005ZM801.524 401.598C799.594 402.878 797.323 403.92 796.473 403.92C795.623 403.911 794.372 404.442 793.702 405.096C793.032 405.75 792.492 407.029 792.502 407.939C792.512 408.849 793.312 409.826 794.272 410.1C795.233 410.375 797.373 410.157 799.024 409.608C800.674 409.067 801.684 408.413 801.274 408.167C800.864 407.911 802.095 406.1 804.025 404.148C805.946 402.195 807.516 400.271 807.526 399.882C807.526 399.494 806.966 399.19 806.276 399.219C805.585 399.247 803.445 400.309 801.524 401.598Z" fill="#2B2B2B"/>
<path d="M706.501 274.051C706.501 272.695 707.281 272.06 709.251 271.823C710.762 271.643 714.023 271.435 716.503 271.368C718.984 271.292 721.675 271.634 722.505 272.117C723.335 272.6 723.775 273.15 723.505 273.34C723.235 273.529 719.854 274.364 716.003 275.198C712.152 276.022 708.441 276.534 707.751 276.326C707.061 276.117 706.501 275.093 706.501 274.051Z" fill="#2B2B2B"/>
<path d="M669.211 283.321C671.292 282.43 674.572 281.293 676.493 280.8C678.413 280.307 680.104 279.871 680.244 279.823C680.384 279.776 680.724 280.165 680.994 280.686C681.264 281.207 678.343 283.122 674.492 284.951C670.641 286.771 667.04 288.269 666.49 288.269C665.94 288.269 665.48 287.52 665.46 286.61C665.44 285.596 666.89 284.316 669.211 283.321Z" fill="#2B2B2B"/>
<path d="M399.911 291.824C400.181 291.17 402.542 289.937 405.162 289.075C407.783 288.212 411.384 287.463 413.174 287.416C414.965 287.359 416.425 287.748 416.425 288.269C416.425 288.79 413.615 290.497 410.174 292.061C406.733 293.625 403.132 294.904 402.172 294.904C401.211 294.904 400.191 294.478 399.921 293.956C399.651 293.435 399.641 292.478 399.911 291.824Z" fill="#2B2B2B"/>
<path d="M937.811 291.662C940.972 290.316 945.253 288.838 947.313 288.364C949.374 287.899 951.624 287.473 952.315 287.416C953.005 287.369 953.585 287.643 953.605 288.032C953.625 288.421 950.814 289.956 947.353 291.444C943.892 292.933 938.701 295.596 935.81 297.369C932.92 299.141 930.109 300.592 929.559 300.592C929.009 300.592 928.338 300.165 928.058 299.644C927.778 299.122 928.568 297.663 929.809 296.402C931.049 295.141 934.65 293.008 937.811 291.662Z" fill="#2B2B2B"/>
<path d="M764.266 297.435C762.905 296.203 762.765 295.53 763.656 294.411C764.376 293.501 765.586 293.189 766.906 293.558C768.067 293.89 770.817 295.113 773.018 296.298C775.219 297.473 777.689 299.776 778.519 301.416C779.35 303.056 779.69 304.715 779.29 305.103C778.89 305.492 777.799 305.16 776.859 304.383C775.929 303.606 773.098 302.07 770.587 300.99C768.077 299.9 765.226 298.307 764.266 297.435Z" fill="#2B2B2B"/>
<path d="M634.702 302.791C635.962 301.653 639.683 299.198 642.984 297.34C646.285 295.482 649.546 293.956 650.236 293.956C650.926 293.956 651.476 294.279 651.466 294.667C651.466 295.056 651.126 295.881 650.716 296.497C650.316 297.113 646.615 300.004 642.484 302.914C638.363 305.833 634.422 308.203 633.732 308.194C633.042 308.184 632.471 307.426 632.451 306.516C632.441 305.606 633.452 303.928 634.702 302.791Z" fill="#2B2B2B"/>
<path d="M603.304 335.227C603.214 334.469 605.765 331.483 608.985 328.592C612.206 325.701 615.137 323.341 615.517 323.341C615.887 323.341 615.977 324.298 615.727 325.473C615.467 326.649 614.027 328.886 612.526 330.45C611.026 332.014 608.825 334.251 607.635 335.426C606.445 336.602 605.024 337.35 604.474 337.085C603.924 336.82 603.394 335.986 603.304 335.227Z" fill="#2B2B2B"/>
<path d="M487.194 331.426C486.233 329.587 485.483 327.407 485.523 326.592C485.573 325.644 486.343 325.218 487.644 325.407C489.064 325.616 490.274 327.17 491.585 330.45C492.635 333.057 493.365 335.322 493.215 335.493C493.065 335.654 492.045 335.559 490.945 335.284C489.844 335.009 488.154 333.275 487.194 331.426Z" fill="#2B2B2B"/>
<path d="M876.705 345.379C881.186 342.384 885.057 339.398 885.287 338.744C885.527 338.09 886.107 337.559 886.587 337.559C887.058 337.559 887.248 338.943 886.988 340.64C886.698 342.592 885.347 344.678 883.287 346.336C881.506 347.768 878.015 350.232 875.545 351.806C873.074 353.379 870.483 354.649 869.793 354.64C869.103 354.63 868.543 353.768 868.543 352.725C868.543 351.427 871.124 349.104 876.705 345.379Z" fill="#2B2B2B"/>
<path d="M806.737 343.957C806.077 342.526 805.526 340.706 805.526 339.929C805.526 339.151 806.197 338.507 807.027 338.507C807.857 338.507 809.277 339.256 810.188 340.166C811.108 341.076 812.458 343.208 813.188 344.905C813.929 346.602 814.529 349.047 814.529 350.355C814.529 351.654 814.079 352.934 813.529 353.199C812.978 353.465 811.498 352.071 810.238 350.118C808.987 348.166 807.407 345.389 806.737 343.957Z" fill="#2B2B2B"/>
<path d="M503.408 353.436C501.067 351.104 499.377 348.507 499.407 347.275C499.427 345.9 500.067 345.142 501.197 345.133C502.238 345.123 504.258 347.133 506.189 350.109C507.969 352.848 509.429 355.626 509.439 356.28C509.439 356.934 508.999 357.465 508.449 357.465C507.899 357.465 505.628 355.654 503.408 353.436Z" fill="#2B2B2B"/>
<path d="M582.819 356.28C582.428 355.569 584.399 353.095 587.73 350.118C590.791 347.379 593.781 345.142 594.382 345.142C594.982 345.142 595.462 345.673 595.442 346.327C595.432 346.981 593.631 349.749 591.441 352.488C588.98 355.578 586.71 357.465 585.469 357.465C584.369 357.465 583.179 356.934 582.819 356.28Z" fill="#2B2B2B"/>
<path d="M794.153 366.688C795.734 365.247 799.945 363.029 803.526 361.768C807.107 360.498 810.138 359.436 810.278 359.408C810.418 359.379 810.528 360.005 810.528 360.782C810.528 361.559 807.487 364.052 803.776 366.318C800.065 368.583 796.014 370.934 794.774 371.531C792.893 372.451 792.423 372.365 791.903 370.972C791.489 369.866 792.24 368.438 794.153 366.688Z" fill="#2B2B2B"/>
<path d="M815.989 380.214C816.349 375.778 816.849 371.199 817.099 370.024C817.349 368.849 818.26 367.891 819.12 367.891C820.23 367.891 820.78 369.048 821.03 371.92C821.221 374.138 821 378.081 820.54 380.688C820.08 383.294 819.33 386.612 818.87 388.062C818.41 389.503 817.58 390.859 817.029 391.058C816.479 391.257 815.359 391.039 814.529 390.555C813.449 389.93 813.348 389.494 814.189 388.982C814.829 388.593 815.639 384.65 815.989 380.214Z" fill="#2B2B2B"/>
<path d="M520.632 373C520.462 372.015 520.562 370.678 520.862 370.024C521.163 369.37 521.643 368.839 521.933 368.839C522.213 368.839 524.193 370.223 526.334 371.92C528.464 373.617 531.045 375.512 532.085 376.138C533.716 377.124 533.756 377.399 532.455 378.28C531.625 378.83 529.835 379.048 528.454 378.754C527.084 378.47 524.833 377.455 523.453 376.517C522.083 375.569 520.812 373.996 520.632 373Z" fill="#2B2B2B"/>
<path d="M557.712 374.564C561.523 374.593 563.654 374.081 565.464 372.707C566.844 371.654 568.305 370.782 568.715 370.763C569.125 370.744 569.465 370.944 569.465 371.209C569.465 371.474 568.655 372.906 567.675 374.403C566.684 375.901 564.554 377.626 562.923 378.242C561.293 378.858 558.382 379.238 556.462 379.076C553.681 378.849 552.911 378.356 552.711 376.659C552.481 374.688 552.851 374.527 557.712 374.564Z" fill="#2B2B2B"/>
<path fill-rule="evenodd" clip-rule="evenodd" d="M712.002 263.434C713.102 263.718 715.913 265.15 718.254 266.628C721.304 268.553 723.565 269.254 726.256 269.112C728.316 269.008 731.137 269.595 732.507 270.429C733.888 271.254 735.898 272.088 736.989 272.278C738.079 272.467 739.739 273.264 740.69 274.05C742.23 275.33 742.25 275.567 740.85 276.42C739.879 277.008 739.509 278.079 739.889 279.264C740.279 280.524 742.59 281.899 746.751 283.359C750.242 284.591 754.003 285.33 755.263 285.017C756.504 284.723 757.514 284.05 757.514 283.529C757.514 283.008 755.823 281.747 753.763 280.723C751.702 279.709 750.352 278.856 750.762 278.828C751.172 278.809 753.203 279.472 755.263 280.316C757.324 281.15 759.805 281.576 760.765 281.264C761.725 280.941 763.525 281.169 764.766 281.766C766.006 282.354 768.237 283.956 769.737 285.321C771.237 286.676 772.478 288.325 772.488 288.979C772.508 289.634 773.528 290.543 774.768 291.017C776.009 291.482 779.079 293.728 781.6 295.994C784.431 298.534 786.441 301.292 786.852 303.198C787.222 304.894 788.312 306.676 789.272 307.15C790.813 307.918 790.723 308.089 788.522 308.515C787.142 308.79 765.656 309.245 740.76 309.539C710.882 309.89 695.498 309.748 695.498 309.122C695.498 308.601 694.598 307.966 693.497 307.7C692.397 307.435 690.937 307.795 690.246 308.487C689.296 309.444 682.454 309.909 661.989 310.402C647.135 310.762 628 311.312 619.478 311.615C610.956 311.918 604.204 311.909 604.474 311.577C604.744 311.255 606.995 310.838 609.475 310.658C611.956 310.477 615.997 309.416 618.478 308.288C620.958 307.169 623.649 306.259 624.479 306.259C625.31 306.259 627.69 304.458 629.771 302.24C631.851 300.032 633.482 297.681 633.392 297.018C633.302 296.354 634.342 295.321 635.722 294.733C637.093 294.136 638.273 293.188 638.333 292.619C638.383 292.051 639.573 290.629 640.964 289.453C642.344 288.278 643.934 287.321 644.485 287.321C645.035 287.321 646.725 286.231 648.235 284.894C649.746 283.567 653.237 281.842 655.987 281.074C658.738 280.306 663.239 278.666 665.99 277.434C669.461 275.88 672.912 275.159 677.243 275.093C682.684 275.008 684.385 275.463 690.356 278.553C696.538 281.757 697.488 281.994 699.859 280.922C701.539 280.164 702.51 278.96 702.53 277.605C702.54 276.429 701.669 273.548 698.589 266.941L701.299 266.211C702.78 265.804 704.45 265.112 705 264.657C705.55 264.202 706.901 263.624 708.001 263.377C709.101 263.121 710.902 263.15 712.002 263.434ZM959.286 269.756C962.637 269.775 963.877 270.278 965.278 272.155C966.248 273.463 967.839 275.273 968.809 276.183C970.279 277.567 970.489 279.008 970.069 284.951C969.639 291.055 969.179 292.449 966.818 294.799C965.308 296.316 962.647 298.98 960.917 300.724C959.186 302.477 956.716 304.705 955.415 305.691C953.175 307.378 951.564 307.425 891.049 305.918L894.299 303.729C896.09 302.525 899.691 299.378 902.302 296.733C906.062 292.932 907.523 292.041 909.303 292.468C910.724 292.809 911.784 292.515 912.174 291.671C912.514 290.932 913.755 290.117 914.925 289.852C916.095 289.586 917.726 288.003 918.556 286.335C919.556 284.319 922.89 281.545 928.558 278.012C934.33 274.41 938.661 272.439 942.062 271.87C944.813 271.406 948.864 270.733 951.064 270.372C953.265 270.012 956.966 269.737 959.286 269.756ZM447.683 280.818C448.093 280.742 449.334 281.112 450.434 281.633C452.115 282.43 452.235 282.837 451.184 284.183C450.184 285.472 450.184 285.662 451.184 285.131C451.894 284.761 452.855 285.188 453.405 286.136C453.935 287.046 454.385 287.472 454.405 287.084C454.425 286.695 455.785 287.652 457.436 289.216C459.086 290.78 461.227 292.098 462.187 292.136C463.147 292.174 463.377 292.392 462.687 292.61C461.997 292.828 461.437 293.643 461.437 294.43C461.437 295.217 461.997 296.932 462.687 298.25C463.377 299.567 464.388 300.619 464.938 300.591C465.488 300.553 466.678 301.292 467.579 302.221C468.479 303.15 471.97 304.657 475.331 305.567C479.642 306.733 482.022 307.994 483.413 309.833C484.503 311.264 485.103 312.762 484.753 313.151C484.393 313.539 476.641 313.842 467.519 313.824C453.035 313.795 450.784 313.587 449.714 312.165C449.044 311.274 448.484 309.16 448.464 307.463C448.444 305.245 447.803 304.079 446.183 303.293C444.943 302.686 443.032 301.274 441.932 300.155C440.832 299.027 439.371 297.387 438.681 296.506C437.681 295.226 437.681 294.525 438.681 293.008C439.651 291.539 441.012 291.103 444.683 291.112C447.293 291.112 449.434 290.79 449.434 290.401C449.444 290.013 448.424 289.093 447.183 288.373C445.943 287.652 443.132 287.103 440.932 287.15C438.731 287.207 436.26 286.847 435.43 286.354C434.437 285.754 434.353 285.45 435.18 285.444C435.87 285.434 436.5 284.837 436.59 284.117C436.671 283.396 437.681 282.562 438.841 282.259C439.991 281.956 441.262 282.231 441.662 282.856C442.232 283.738 442.402 283.728 442.412 282.818C442.422 282.164 443.442 281.482 444.683 281.292C445.923 281.103 447.273 280.885 447.683 280.818ZM466.728 292.553C467.388 292.762 468.729 294.013 469.689 295.34C470.649 296.657 470.989 297.747 470.439 297.747C469.889 297.747 468.319 296.79 466.958 295.615C465.588 294.439 464.708 293.188 464.988 292.837C465.278 292.477 466.058 292.354 466.728 292.553ZM897.05 313.861C904.052 313.861 908.553 314.231 908.553 314.809C908.553 315.331 906.052 317.786 903.012 320.26C899.961 322.734 897.48 325.511 897.51 326.421C897.53 327.331 898 328.288 898.551 328.554C899.101 328.819 903.042 325.606 915.055 313.824L929.559 314.449C937.531 314.79 944.182 315.122 944.332 315.179C944.472 315.236 943.012 316.032 941.082 316.942C938.341 318.231 937.341 319.444 936.56 322.392C936.01 324.478 935.11 326.392 934.56 326.658C934.01 326.923 932.319 329.492 930.809 332.383C929.299 335.274 927.498 337.833 926.808 338.07C926.118 338.307 925.558 339.255 925.558 340.165C925.558 341.104 923.947 342.649 921.847 343.72C919.276 345.037 917.265 347.208 915.285 350.829C913.714 353.701 910.644 357.749 908.453 359.834C906.273 361.919 904.522 364.052 904.562 364.573C904.602 365.095 903.922 366.166 903.052 366.943C902.181 367.72 901.481 369.54 901.511 370.972C901.531 372.403 900.461 375.18 899.131 377.133C897.8 379.085 895.53 381.967 894.099 383.531C892.659 385.095 891.499 386.697 891.519 387.086C891.539 387.474 890.168 389.18 888.478 390.877C886.798 392.574 884.767 395.342 883.977 397.038C883.197 398.735 881.186 401.294 879.526 402.726C877.865 404.157 875.955 406.612 875.294 408.176C874.624 409.74 873.334 411.712 872.434 412.565C871.534 413.408 869.503 414.186 867.923 414.28C866.332 414.375 863.691 414.432 862.041 414.404C860.391 414.366 857.69 414.83 856.04 415.418C853.629 416.28 851.948 416.176 847.537 414.868C844.517 413.968 841.816 413.484 841.536 413.797C841.266 414.1 840.025 413.702 838.785 412.925C837.025 411.806 835.934 411.721 833.784 412.508C832.273 413.067 830.993 413.598 830.933 413.693C830.883 413.787 830.213 413.342 829.433 412.716C828.662 412.081 825.111 411.276 821.531 410.925C817.95 410.574 813.789 409.702 812.278 408.991C810.768 408.28 808.557 406.745 807.377 405.569C805.636 403.844 805.446 403.124 806.377 401.778C807.007 400.868 807.527 399.91 807.527 399.645C807.527 399.38 806.547 399.275 805.346 399.408C803.996 399.55 801.895 398.47 799.845 396.564C798.014 394.868 795.624 393.484 794.524 393.484C793.423 393.484 792.413 393.161 792.273 392.773C792.133 392.384 790.562 391.105 788.772 389.929C786.982 388.754 785.181 387.815 784.771 387.834C784.361 387.863 783.351 387.152 782.52 386.27C781.7 385.389 781.19 383.768 781.41 382.678C781.71 381.123 781.44 380.839 780.16 381.398C778.919 381.929 778.399 381.521 778.019 379.739C777.749 378.441 776.039 375.986 774.238 374.289C771.958 372.147 770.567 369.616 769.677 365.995C768.967 363.123 767.567 359.076 766.546 356.99C765.536 354.905 763.085 351.815 761.105 350.118C759.134 348.421 756.134 344.8 754.453 342.061C752.733 339.274 751.662 336.459 752.022 335.663C752.373 334.886 752.403 334.563 752.082 334.952C751.772 335.341 750.682 334.914 749.672 334.004C748.662 333.094 747.021 331.919 746.021 331.397C744.807 330.765 744.004 328.901 743.61 325.805C743.26 323.122 742.38 320.857 741.51 320.43C740.69 320.023 739.109 319.435 738.009 319.122C736.388 318.667 736.248 318.335 737.309 317.397C738.239 316.553 745.541 316.146 788.022 315.634L787.682 317.833C787.432 319.463 788.652 321.179 792.433 324.525C795.234 326.999 798.194 329.028 799.025 329.028C800.125 329.028 800.285 328.582 799.635 327.369C799.155 326.459 797.124 323.682 795.134 321.208C793.153 318.734 791.823 316.497 792.193 316.231C792.553 315.966 794.133 315.757 795.694 315.757C797.544 315.757 798.685 316.335 798.995 317.416C799.255 318.326 800.265 319.928 801.245 320.971C802.226 322.013 804.116 324.999 805.446 327.606C806.787 330.212 808.037 333.198 808.247 334.241C808.447 335.284 808.937 336.345 809.327 336.611C809.717 336.876 811.278 338.687 812.788 340.639C814.299 342.592 815.529 344.62 815.529 345.142C815.529 345.663 817.329 347.796 819.53 349.881C821.731 351.966 823.531 354.099 823.531 354.621C823.531 355.142 824.541 355.843 825.782 356.166C827.022 356.497 828.262 357.113 828.532 357.521C828.812 357.938 830.383 358.478 832.033 358.734C833.684 358.99 835.264 359.256 835.534 359.322C835.814 359.388 834.794 360.061 833.284 360.82C831.613 361.663 830.643 362.858 830.803 363.862C831.043 365.284 832.203 365.512 839.055 365.464C845.067 365.426 848.207 364.905 851.788 363.332C854.399 362.194 856.54 360.611 856.54 359.834C856.54 358.962 855.859 358.564 854.789 358.801C853.829 359.009 851.798 359.436 850.288 359.749C848.778 360.052 847.547 359.986 847.557 359.597C847.557 359.208 848.127 357.36 848.808 355.483C849.478 353.616 850.708 351.36 851.538 350.469C852.369 349.578 853.489 348.886 854.039 348.924C854.589 348.962 857.18 347.066 859.79 344.696C862.401 342.336 864.992 340.402 865.542 340.402C866.092 340.402 866.532 339.871 866.512 339.217C866.492 338.563 867.412 337.179 868.553 336.137C869.693 335.094 871.283 332.857 872.084 331.16C872.884 329.464 873.994 328.08 874.544 328.08C875.094 328.08 875.765 327.227 876.045 326.184C876.325 325.141 876.885 324.478 877.295 324.715C877.705 324.952 879.176 324.118 880.546 322.866C881.926 321.606 883.607 319.928 884.297 319.122C884.987 318.317 885.547 316.8 885.547 315.757C885.547 313.975 886.217 313.861 897.05 313.861ZM662.989 316.857C665.74 316.79 668.661 317.151 669.491 317.653C670.491 318.266 670.575 318.576 669.741 318.582C669.051 318.591 668.381 319.776 668.241 321.208C668.031 323.359 666.89 324.355 661.739 326.895C658.298 328.592 654.477 330.98 653.237 332.212C651.596 333.843 649.496 334.582 645.485 334.952C640.944 335.378 639.503 335.985 637.233 338.412C634.922 340.876 633.762 341.35 629.981 341.35C627.51 341.35 624.239 341.928 622.729 342.649C621.218 343.36 618.738 345.274 617.227 346.914C615.717 348.545 614.477 350.412 614.477 351.066C614.477 351.919 612.726 352.175 608.225 351.966C603.574 351.758 601.083 352.147 598.473 353.483C596.552 354.469 594.231 356.725 593.331 358.497C592.421 360.279 591.101 363.218 590.38 365.047C589.66 366.877 589.05 370.498 589.02 373.104C588.98 375.711 588.28 379.247 587.46 380.962C586.639 382.678 585.409 384.062 584.719 384.043C584.029 384.024 583.469 385.076 583.469 386.375C583.469 387.683 582.909 389.161 582.218 389.673C581.528 390.185 578.747 392.422 576.037 394.65C573.326 396.877 570.285 399.446 569.285 400.356C568.285 401.266 566.344 402.441 564.964 402.963C563.133 403.655 561.193 403.512 557.712 402.432C553.341 401.067 552.681 401.076 549.46 402.565C547.539 403.456 545.059 404.1 543.958 404.015C542.858 403.92 539.367 403.854 536.206 403.873C532.685 403.901 529.585 403.351 528.204 402.479C526.964 401.692 524.373 400.792 522.453 400.47C520.532 400.147 517.602 399.285 515.951 398.545C514.301 397.816 511.49 396.375 509.699 395.351C507.909 394.327 505.198 392.308 503.668 390.877C502.128 389.446 500.027 386.138 498.997 383.531C497.966 380.924 496.076 377.73 494.806 376.422C493.535 375.123 492.385 372.772 492.245 371.208C492.105 369.569 491.035 367.663 489.724 366.706C488.424 365.758 487.444 364.024 487.444 362.678C487.444 361.199 486.874 360.308 485.943 360.308C485.113 360.308 482.943 358.924 481.112 357.227C479.282 355.53 476.941 352.867 475.901 351.303C474.86 349.739 473.29 347.18 472.41 345.616C471.059 343.217 471.019 342.44 472.13 340.639C473.35 338.658 473.17 338.364 469.689 336.497C467.068 335.085 465.088 332.885 463.097 329.151C461.537 326.212 460.417 323.17 460.597 322.392C460.877 321.227 463.868 320.885 493.945 320.023L496.696 322.392C498.207 323.7 499.447 325.293 499.447 325.947C499.447 326.601 500.117 327.132 500.947 327.132C501.777 327.132 502.448 327.558 502.448 328.08C502.448 328.601 503.348 329.236 504.448 329.502C505.678 329.795 507.409 331.985 508.949 335.189C510.33 338.061 513.29 342.213 515.551 344.431C517.802 346.649 520.242 349.739 520.962 351.303C521.683 352.867 523.453 355.218 524.893 356.516C526.334 357.824 527.494 359.417 527.484 360.071C527.464 360.725 528.244 361.464 529.205 361.711C530.165 361.967 532.755 362.384 534.956 362.659C537.157 362.924 539.627 363.36 540.457 363.616C541.288 363.881 543.198 363.028 544.709 361.73C546.219 360.422 547.799 358.725 548.21 357.957C548.68 357.076 551.01 356.374 554.461 356.08C559.562 355.644 560.363 355.218 565.464 350.308C568.495 347.398 571.636 344.857 572.466 344.658C573.296 344.459 574.526 342.99 575.217 341.398C575.907 339.805 576.497 338.184 576.537 337.796C576.567 337.407 577.577 336.563 578.787 335.938C579.988 335.303 581.978 334.762 583.219 334.753C584.669 334.724 585.829 333.871 586.469 332.345C587.02 331.047 588.48 329.492 589.72 328.895C590.961 328.307 592.681 327.132 593.541 326.288C594.402 325.454 595.402 323.7 596.372 320.023L627.18 318.506C644.124 317.672 660.239 316.933 662.989 316.857Z" fill="#5D5D5D"/>
<path d="M364.57 296.799C365.66 293.927 367.761 290.411 369.231 288.979C370.692 287.548 371.892 286.363 371.902 286.354C371.912 286.344 373.912 286.96 376.353 287.738C378.794 288.505 380.704 288.828 380.604 288.468C380.504 288.098 381.884 287.719 383.665 287.624C385.455 287.529 388.716 287.434 390.917 287.406C393.938 287.377 395.468 287.946 397.168 289.709C398.409 291.008 399.419 293.017 399.419 294.193C399.409 295.368 398.509 297.709 397.418 299.406C396.318 301.103 395.758 302.496 396.168 302.506C396.578 302.506 396.238 302.923 395.418 303.406C394.588 303.899 392.787 304.07 391.417 303.776C390.037 303.482 387.566 303.795 385.916 304.468C384.265 305.141 381.224 306.781 379.144 308.117C377.073 309.454 375.053 310.231 374.643 309.861C374.242 309.482 373.232 309.567 372.412 310.051C371.412 310.639 370.161 310.474 368.661 309.558C367.421 308.8 365.55 306.79 364.49 305.093C362.589 302.051 362.599 301.946 364.57 296.799Z" fill="#E8E8E8"/>
<path d="M371.093 302.63C371.943 301.397 374.054 299.814 375.774 299.113C377.505 298.402 379.925 297.805 381.166 297.786C382.766 297.757 383.416 298.298 383.416 299.644C383.416 300.686 382.406 302.402 381.166 303.454C379.925 304.506 377.565 305.966 375.914 306.687C374.264 307.407 372.333 307.72 371.623 307.378C370.913 307.037 370.153 306.326 369.943 305.805C369.723 305.284 370.233 303.852 371.093 302.63Z" fill="#2B2B2B"/>
<path d="M857.305 378.833C864.678 378.223 871.43 377.578 872.308 377.383C873.186 377.2 875.099 377.541 876.574 378.15C878.256 378.857 880.73 378.784 883.277 377.955C885.507 377.236 888.25 376.993 889.371 377.407C890.504 377.834 892.942 379.454 898.134 383.853L902.704 381.331C906.214 379.405 908.701 378.955 913.369 379.405C917.586 379.82 921.059 381.16 924.642 383.755C927.494 385.815 931.187 387.508 932.869 387.508C934.539 387.508 937.561 388.337 939.572 389.336C941.583 390.335 944.74 393.187 946.58 395.648C949.091 399.011 950.029 401.838 950.346 406.919C950.566 410.648 950.163 415.217 949.432 417.057C948.701 418.897 946.324 421.529 944.143 422.906C940.876 424.953 938.561 425.33 931.041 425.038C923.813 424.746 921.266 425.123 918.853 426.841C917.171 428.048 912.784 429.875 909.103 430.923C905.41 431.971 901.169 432.495 899.657 432.093C897.098 431.423 896.976 431.642 897.829 435.42C898.329 437.649 900.462 441.073 902.57 443.035C904.898 445.216 906.653 448.262 907.067 450.87C907.445 453.222 907.994 457.048 908.274 459.399C908.615 462.092 911.163 466.808 915.221 472.194C918.756 476.885 923.533 484.829 925.837 489.862C928.14 494.882 930.541 502.571 931.163 506.921C931.784 511.271 932.004 515.803 931.662 516.973C931.321 518.143 929.395 519.934 927.384 520.933C925.373 521.932 921.254 522.761 918.244 522.761C915.221 522.761 912.479 523.309 912.15 523.98C911.809 524.65 908.944 525.064 905.763 524.893C900.181 524.601 899.925 524.735 897.841 529.158C896.659 531.668 894.185 534.848 892.345 536.201C889.383 538.394 887.226 538.675 873.758 538.626C864.508 538.589 855.404 537.834 850.602 536.688C846.165 535.641 841.461 533.642 839.901 532.143C838.377 530.669 837.159 528.914 837.195 528.244C837.219 527.574 835.598 526.611 833.563 526.112C831.109 525.503 828.968 525.767 827.14 526.904C825.446 527.964 823.459 528.256 821.96 527.684C820.62 527.16 818.84 525.844 817.999 524.747C816.61 522.944 816.147 523.041 812.82 525.807C810.809 527.477 808.2 528.866 807.03 528.878C805.86 528.89 803.118 528.074 800.936 527.05C798.755 526.027 796.354 523.967 795.598 522.456C794.83 520.933 794.514 517.29 794.879 514.232C795.379 510.04 796.415 508.029 799.267 505.702C802.521 503.058 803.008 501.864 803.057 496.563C803.082 493.213 803.801 489.094 804.654 487.425C805.495 485.743 809.468 482.149 820.742 474.472L821.485 466.028C821.887 461.373 822.85 456.341 823.618 454.83C824.386 453.319 827.201 450.712 829.882 449.042C834.514 446.142 834.758 445.691 834.758 433.811L830.797 437.04C828.615 438.819 825.056 441.012 822.874 441.914C820.693 442.816 816.586 443.559 813.734 443.547C810.882 443.547 807.177 442.791 805.507 441.865C803.496 440.756 800.693 440.452 797.256 440.964C793.502 441.524 792.064 441.305 792.076 440.208C792.088 439.367 790.723 438.405 789.053 438.076C787.372 437.735 784.824 435.688 783.386 433.506C781.595 430.777 780.973 428.401 781.412 425.891C781.753 423.88 782.716 420.322 783.545 417.971C784.373 415.619 785.946 411.842 787.055 409.551C788.152 407.272 790.967 404.372 793.319 403.105C796.5 401.387 799.535 400.887 805.202 401.156C810.687 401.424 812.82 401.095 812.82 399.998C812.82 399.157 814.331 396.757 816.171 394.661C818.012 392.553 821.046 390.092 822.899 389.178C824.751 388.252 828.798 387.508 831.869 387.508C836.634 387.508 837.951 386.948 840.693 383.719C843.776 380.076 844.386 379.893 857.305 378.833Z" fill="#2B2B2B"/>
<path d="M934.49 443.766C934.38 440.525 934.746 437.503 935.307 437.064C935.867 436.614 937.183 436.248 938.232 436.248C939.536 436.248 940.657 438.429 941.803 443.254C942.729 447.105 943.29 451.357 943.034 452.698C942.778 454.148 941.486 455.257 939.865 455.439C937.927 455.659 936.781 454.854 935.916 452.698C935.246 451.016 934.6 446.995 934.49 443.766Z" fill="#2B2B2B"/>
<path d="M916.196 450.773C916.086 447.032 916.391 443.632 916.866 443.242C917.342 442.84 918.524 442.743 919.511 443.035C920.523 443.328 921.815 446.179 922.509 449.652C923.322 453.713 923.322 456.556 922.509 458.181C921.839 459.521 920.876 460.63 920.377 460.642C919.877 460.654 918.768 459.96 917.915 459.119C917.074 458.266 916.294 454.513 916.196 450.773Z" fill="#2B2B2B"/>
<path d="M782.228 463.018C782.155 458.526 782.785 455.378 784.117 453.575C785.226 452.089 786.921 450.87 787.896 450.87C788.871 450.87 790.163 451.833 790.772 453.002C791.381 454.172 791.528 458.522 791.077 462.677C790.638 466.82 789.724 470.841 789.053 471.597C788.152 472.632 787.128 472.571 785.092 471.377C782.789 470.025 782.326 468.648 782.228 463.018Z" fill="#2B2B2B"/>
<path d="M801.205 465.492C801.692 462.47 802.338 459.594 802.643 459.095C802.935 458.595 803.715 458.181 804.349 458.181C804.983 458.181 806.104 460.24 806.823 462.75C807.542 465.26 807.957 469.513 807.737 472.194C807.408 476.202 806.848 477.116 804.593 477.372C802.484 477.604 801.68 476.897 801.095 474.326C800.668 472.486 800.729 468.502 801.205 465.492Z" fill="#2B2B2B"/>
<path d="M927.397 475.544C927.409 473.705 927.738 470.963 928.128 469.452C928.518 467.941 929.2 466.686 929.639 466.662C930.078 466.625 931.053 467.307 931.809 468.185C932.576 469.05 933.576 471.402 934.051 473.412C934.514 475.423 934.587 478.298 934.185 479.809C933.746 481.503 932.54 482.551 931.041 482.551C929.7 482.551 928.323 481.722 927.994 480.723C927.653 479.724 927.397 477.384 927.397 475.544Z" fill="#2B2B2B"/>
<path d="M785.994 502.656C784.568 502.656 784.178 500.889 784.178 494.407C784.178 487.827 784.544 486.218 785.958 486.487C786.933 486.669 788.493 488.729 789.431 491.08C790.882 494.699 790.882 495.893 789.468 499C788.554 501.011 786.981 502.656 785.994 502.656Z" fill="#2B2B2B"/>
<path d="M844.456 387.438C845.358 386.597 849.027 385.488 852.598 384.989C857.412 384.331 859.252 384.489 859.606 385.623C859.886 386.463 860.374 387.158 860.715 387.158C861.044 387.158 862.86 386.341 864.737 385.33C867.089 384.075 869.076 383.844 871.135 384.562C872.781 385.147 874.938 386.536 875.95 387.657C876.961 388.791 878.594 389.704 879.606 389.704C880.618 389.704 882.251 388.827 883.262 387.767C884.274 386.707 885.907 385.842 886.919 385.854C887.93 385.854 890.807 387.255 893.317 388.949C895.828 390.643 898.302 392.02 898.802 392.007C899.301 391.995 900.995 390.752 902.556 389.266C904.725 387.194 906.846 386.549 911.538 386.549C917.303 386.549 917.949 386.878 922.348 392.032C926.687 397.125 927.224 397.405 929.82 395.931C931.904 394.737 933.476 394.664 935.974 395.626C937.815 396.333 940.423 398.685 941.764 400.866C943.141 403.108 944.189 406.946 944.177 409.7C944.165 412.381 943.762 415.183 943.263 415.914C942.775 416.658 941.142 417.888 939.631 418.656C938.119 419.423 935.109 420.045 932.927 420.045C930.746 420.033 927.199 419.35 925.054 418.522C921.556 417.169 920.837 417.291 918.351 419.606C916.815 421.044 913.915 423.03 911.904 424.029C909.893 425.041 906.468 426.198 904.286 426.613C901.337 427.173 899.777 426.795 898.192 425.138C897.022 423.92 894.134 422.482 891.794 421.946C889.454 421.422 885.054 419.594 882.044 417.9C876.742 414.927 876.425 414.891 872.598 416.828C869.957 418.168 865.59 418.839 859.496 418.839C854.463 418.839 850.075 419.387 849.746 420.057C849.405 420.727 846.992 422.494 844.371 423.968C841.751 425.455 838.46 426.552 837.059 426.405C835.608 426.259 832.537 427.916 829.941 430.244C827.43 432.498 823.591 435.24 821.409 436.336C819.228 437.433 816.071 438.335 814.401 438.335C812.72 438.335 810.538 438.066 809.526 437.725C808.149 437.262 807.93 436.202 808.612 433.436C809.331 430.561 809.124 429.756 807.698 429.793C806.687 429.817 803.676 430.95 800.995 432.291C798.155 433.729 794.84 434.484 793.073 434.119C791.391 433.777 789.319 432.803 788.466 431.95C787.601 431.109 787.052 429.05 787.247 427.368C787.503 425.029 788.368 424.249 790.94 424.017C792.78 423.847 794.56 422.896 794.901 421.885C795.23 420.886 794.328 418.826 792.89 417.316C790.977 415.317 790.587 414.074 791.44 412.746C792.098 411.747 794.791 409.883 797.424 408.603C801.677 406.544 802.957 406.459 808.917 407.763C812.598 408.567 815.888 408.871 816.23 408.445C816.559 408.006 817.656 405.435 818.667 402.718C819.813 399.623 821.946 396.918 824.408 395.456C827.138 393.811 829.514 393.336 832.33 393.835C834.536 394.237 837.302 395.504 838.472 396.65C839.776 397.917 841.312 398.38 842.433 397.82C843.75 397.162 844.054 395.785 843.542 392.946C843.079 390.387 843.396 388.437 844.456 387.438Z" fill="#5D5D5D"/>
<path d="M879.588 427.204C877.918 425.437 876.273 424.048 875.931 424.121C875.602 424.182 872.312 425.035 868.619 426.034C863.841 427.326 860.685 427.521 857.65 426.717C853.628 425.669 853.079 425.9 848.082 430.921C845.157 433.857 842.001 436.258 841.075 436.258C839.844 436.258 839.368 437.939 839.368 442.35C839.368 447.102 838.771 448.979 836.626 450.94C835.115 452.317 832.312 454.645 830.386 456.119C827.241 458.519 826.815 459.726 826.12 468.048C825.669 473.507 824.609 478.162 823.524 479.417C822.525 480.586 818.82 483.133 815.297 485.095C811.166 487.386 808.704 489.615 808.363 491.394C808.07 492.893 807.546 496.878 807.217 500.228C806.742 505.054 805.84 507.003 802.878 509.672C799.831 512.401 799.21 513.839 799.453 517.495C799.709 521.199 800.331 522.137 803.11 522.978C805.803 523.782 807.18 523.392 810.118 520.943C812.129 519.261 814.456 517.872 815.297 517.848C816.138 517.824 818.332 518.92 820.173 520.285C823.159 522.49 823.756 522.563 825.657 520.967C826.827 519.98 829.021 519.152 830.532 519.139C832.043 519.127 833.274 519.663 833.274 520.334C833.274 521.004 834.103 521.552 835.103 521.552C836.419 521.552 836.931 520.187 836.931 516.678C836.931 513.266 836.017 510.708 833.884 508.149C831.812 505.651 830.849 503.031 830.861 499.924C830.873 497.365 832.08 493.393 833.603 490.895C835.103 488.446 839.417 481.317 843.195 475.054L850.057 463.674C848.887 447.456 849.118 445.14 850.447 444.287C851.641 443.532 852.629 443.91 853.677 445.506C855.139 447.748 855.298 447.724 858.332 444.787L861.465 441.741C865.353 447.102 865.73 447.2 867.095 445.482C868.192 444.105 869.533 443.824 871.873 444.482C874.835 445.311 875.054 445.14 874.311 442.655C873.652 440.449 873.969 439.913 875.931 439.913C877.284 439.913 879.295 441.4 880.429 443.264C881.964 445.762 882.428 449.015 882.257 456.058C882.025 465.282 882.147 465.672 887.132 473.117C889.947 477.296 894.189 483.206 896.578 486.228C898.966 489.25 901.745 494.051 902.745 496.878C904.524 501.91 904.5 502.105 901.416 505.395C898.771 508.222 898.333 509.672 898.674 514.546L899.088 520.334C906.645 520.334 909.119 519.785 909.448 519.115C909.789 518.445 912.934 517.921 916.456 517.945C920.234 517.982 923.415 517.348 924.232 516.422C925.133 515.374 925.292 512.779 924.683 508.758C924.171 505.407 922.477 499.644 920.917 495.964C919.356 492.272 915.834 485.972 913.104 481.951C910.374 477.93 906.791 472.8 905.133 470.558C902.964 467.609 901.965 464.368 901.526 458.873C900.99 452.122 900.478 450.904 896.955 448.028C894.14 445.713 892.726 443.288 892.044 439.608C891.252 435.295 890.374 434.089 886.864 432.407C884.536 431.311 881.27 428.959 879.588 427.204Z" fill="white"/>
<path d="M879.563 454.23C879.563 452.049 879.076 449.685 878.503 448.979C877.772 448.077 876.577 448.15 874.554 449.21C872.69 450.197 871.13 450.331 870.142 449.588C869.179 448.857 867.973 448.893 866.839 449.685C865.864 450.368 863.537 450.806 861.66 450.672C859.795 450.538 856.748 450.526 854.908 450.648C851.934 450.843 851.593 451.306 851.861 454.742C852.031 456.862 852.848 458.788 853.689 459.007C854.53 459.226 855.212 458.714 855.212 457.886C855.212 457.045 856.443 455.619 857.955 454.718C860.014 453.475 862.574 453.317 868.326 454.109C872.519 454.669 876.212 455.827 876.553 456.667C876.882 457.496 877.699 458.19 878.369 458.19C879.039 458.19 879.576 456.399 879.563 454.23Z" fill="white"/>
<path d="M861.66 465.83C862.196 465.306 862.452 463.345 862.245 461.456C861.867 458.117 861.782 458.069 858.978 459.994C857.394 461.09 856.175 462.772 856.273 463.735C856.358 464.709 857.394 465.782 858.564 466.135C859.734 466.488 861.136 466.342 861.66 465.83Z" fill="white"/>
<path d="M874.554 460.323C873.969 459.141 872.677 458.19 871.666 458.19C870.459 458.19 869.862 459.336 869.923 461.541C869.972 463.381 870.386 465.904 870.837 467.159C871.52 469.023 871.91 469.133 873.031 467.768C873.774 466.854 874.664 465.282 874.993 464.283C875.334 463.272 875.127 461.493 874.554 460.323Z" fill="white"/>
<path d="M852.275 481.646C854.908 474.799 855.164 473.178 853.786 471.996C852.458 470.838 851.142 472.252 846.973 479.307C844.146 484.108 840.745 489.408 839.429 491.09C838.113 492.759 836.699 495.501 836.273 497.182C835.712 499.4 836.358 501.289 838.661 504.189C840.392 506.358 842.22 508.161 842.72 508.173C843.22 508.197 844.865 504.639 846.376 500.253C847.887 495.878 849.118 491.76 849.118 491.09C849.118 490.42 850.544 486.167 852.275 481.646Z" fill="white"/>
<path d="M890.63 487.434C886.827 483.072 882.623 477.723 881.282 475.542C879.064 471.935 878.637 471.728 876.48 473.288C874.176 474.945 874.25 475.286 879.222 485.168C882.038 490.773 886.011 497.402 888.058 499.924C890.106 502.434 892.738 504.518 893.908 504.542C895.078 504.566 896.724 503.75 897.565 502.714C898.418 501.666 898.747 499.619 898.308 498.096C897.882 496.585 894.433 491.784 890.63 487.434Z" fill="white"/>
<path d="M873.055 484.388L857.418 484.339L853.92 496.549C851.995 503.263 849.582 509.989 848.558 511.5C847.522 512.998 845.584 514.241 844.243 514.241C841.989 514.241 841.867 514.789 842.586 521.857C843.012 526.036 843.427 529.582 843.5 529.74C843.573 529.887 847.473 530.837 852.165 531.848C856.858 532.86 866.462 533.713 873.494 533.737C885.73 533.786 886.425 533.652 889.338 530.618C891.971 527.864 892.385 526.329 892.385 519.176C892.385 511.585 892.092 510.622 888.729 507.393C886.705 505.456 882.367 499.497 879.064 494.136L873.055 484.388Z" fill="white"/>
<path d="M657.517 124.275C658.02 122.587 658.565 122.198 660.902 121.857C662.432 121.635 665.597 121.394 667.933 121.327C671.035 121.233 672.465 121.488 673.244 122.265C674.186 123.216 674.186 123.438 673.244 124.221C672.656 124.71 669.994 125.675 667.317 126.365C664.641 127.055 662.332 127.852 662.184 128.127C662.035 128.402 662.07 129.835 662.623 133.989L666.694 133.962C669.612 133.936 671.07 134.244 671.828 135.034C672.777 136.026 672.741 136.247 671.474 137.091C670.695 137.607 668.507 138.25 666.616 138.525C664.719 138.793 663.083 139.161 662.97 139.349C662.863 139.53 663.048 142.397 663.38 145.713C663.713 149.029 663.841 152.272 663.657 152.915C663.458 153.638 662.651 154.087 661.561 154.087C660.38 154.083 659.576 153.58 659.146 152.58C658.792 151.749 658.148 145.492 657.716 138.679C657.27 131.685 657.185 125.407 657.517 124.275Z" fill="#2B2B2B"/>
<path d="M711.474 133.822C711.481 128.02 711.665 122.815 711.892 122.265C712.125 121.709 712.919 121.26 713.662 121.26C714.632 121.26 715.22 121.977 715.723 123.773C716.112 125.153 716.431 127.189 716.424 128.295C716.424 129.4 716.586 131.283 717.146 134.659L720.509 132.535C722.357 131.37 724.829 130.392 725.997 130.358C727.505 130.318 728.121 130.619 728.121 131.39C728.121 131.986 726.684 133.601 724.935 134.981C723.179 136.354 721.267 137.707 720.686 137.989C719.844 138.384 720.481 139.422 723.696 142.94C725.933 145.385 728.291 148.366 728.928 149.565C729.566 150.764 729.884 152.272 729.637 152.915C729.389 153.558 728.546 154.087 727.767 154.087C726.918 154.087 724.722 152.359 722.28 149.753C720.042 147.368 717.967 145.559 717.677 145.733C717.387 145.907 717.146 147.857 717.146 150.068C717.146 152.747 716.792 154.422 716.084 155.092C715.496 155.642 714.625 155.997 714.136 155.876C713.648 155.755 712.855 154.925 712.373 154.034C711.899 153.143 711.509 151.508 711.538 148.393L708.854 151.227C707.374 152.788 705.299 154.215 704.223 154.409C702.715 154.677 701.801 154.308 700.152 152.747C698.983 151.642 698.02 150.061 698.013 149.23C698.006 148.4 698.41 147.341 698.898 146.865C699.628 146.175 700.024 146.303 701.008 147.535C701.993 148.775 702.453 148.922 703.487 148.319C704.181 147.91 704.754 147.006 704.754 146.316C704.754 145.512 703.784 144.628 702.099 143.877C700.64 143.228 698.962 142.022 698.374 141.191C697.787 140.36 697.312 138.706 697.312 137.506C697.319 136.307 697.673 134.652 698.112 133.822C698.544 132.991 699.578 131.792 700.414 131.155C701.242 130.519 702.878 129.983 704.046 129.963C705.215 129.943 706.744 130.465 707.445 131.122C708.146 131.778 708.62 132.917 708.5 133.654C708.344 134.632 707.665 135.041 705.986 135.162C704.138 135.296 703.685 135.624 703.664 136.836C703.643 137.888 704.315 138.645 705.901 139.349C707.148 139.898 708.911 141.258 711.467 144.373L711.474 133.822Z" fill="#2B2B2B"/>
<path d="M625.264 130.512C625.49 126.251 625.823 125.072 627.204 123.645C628.124 122.701 629.059 121.923 629.286 121.917C629.512 121.91 630.284 122.292 631.006 122.754C632.267 123.572 632.267 123.779 631.098 128.295C630.369 131.102 630.057 133.996 630.319 135.496C630.603 137.098 631.141 138.009 631.821 138.009C632.401 138.009 632.883 138.31 632.883 138.679C632.883 139.047 632.38 139.798 631.771 140.354C631.155 140.903 630.44 141.358 630.178 141.365C629.916 141.365 629.059 140.963 628.28 140.461C627.501 139.965 626.439 138.679 625.929 137.607C625.313 136.341 625.087 133.875 625.264 130.512Z" fill="#2B2B2B"/>
<path d="M634.143 126.62C634.88 125.327 636.558 123.752 637.875 123.116C639.192 122.48 640.551 122.178 640.884 122.446C641.224 122.714 640.842 124.67 640.027 126.787C639.213 128.904 638.349 132.22 638.109 134.157C637.754 136.957 637.91 137.881 638.845 138.679C639.496 139.228 640.013 140.059 639.992 140.521C639.971 141.084 639.334 141.224 638.016 140.943C636.947 140.715 635.432 139.952 634.653 139.248C633.57 138.263 633.187 136.91 633.017 133.467C632.847 130.03 633.116 128.409 634.143 126.62Z" fill="#2B2B2B"/>
<path d="M746.758 125.896C746.695 124.945 746.914 123.96 747.24 123.719C747.566 123.471 748.493 123.263 749.307 123.25C750.115 123.243 751.46 123.92 752.289 124.757C753.11 125.601 754.151 126.961 754.59 127.792C755.022 128.623 755.39 131.336 755.397 133.822C755.404 136.401 755.022 138.873 754.512 139.57C753.952 140.333 752.961 140.715 751.878 140.575C750.27 140.367 750.072 139.925 749.251 134.659C748.755 131.524 748.019 128.663 747.608 128.295C747.197 127.926 746.815 126.848 746.758 125.896Z" fill="#2B2B2B"/>
<path d="M736.158 128.241C736.087 127.471 736.293 126.64 736.618 126.399C736.944 126.151 738.112 125.95 739.217 125.95C740.577 125.95 741.787 126.593 742.991 127.96C743.961 129.065 745.08 131.102 745.463 132.482C745.852 133.862 746.171 135.369 746.171 135.831C746.178 136.294 745.618 137.895 744.939 139.402C744.011 141.446 743.352 142.075 742.319 141.915C741.221 141.74 740.754 140.749 740.01 137.004C739.458 134.197 738.523 131.778 737.688 130.974C736.923 130.237 736.236 129.005 736.158 128.241Z" fill="#2B2B2B"/>
<path d="M690.415 129.661C689.927 129.092 689.707 128.328 689.92 127.96C690.132 127.591 690.847 127.276 691.513 127.263C692.171 127.243 693.191 127.705 693.779 128.281C694.359 128.857 694.678 129.434 694.487 129.568C694.289 129.695 693.496 130.003 692.717 130.251C691.824 130.526 690.975 130.311 690.415 129.661Z" fill="#2B2B2B"/>
<path d="M674.448 135.329C674.434 134.036 674.674 132.589 674.979 132.107C675.283 131.624 676.197 131.323 677.011 131.437C678.109 131.591 678.682 132.401 679.971 137.453L681.741 136.153C682.711 135.436 684.545 134.351 685.813 133.748C687.08 133.145 688.829 132.643 689.707 132.636C690.585 132.629 691.888 133.011 692.61 133.473C693.651 134.15 694.133 135.986 694.933 142.363C695.641 148.024 695.726 150.845 695.216 151.91C694.813 152.741 693.85 153.417 693.071 153.417C692.292 153.417 691.293 152.741 690.861 151.91C690.422 151.079 689.7 147.609 689.268 144.199C688.829 140.782 688.227 137.995 687.937 138.002C687.647 138.002 686.266 138.987 684.878 140.186C683.49 141.385 682.06 143.415 681.699 144.708C681.338 145.994 681.04 148.788 681.04 150.905C681.033 153.531 680.679 155.079 679.921 155.762C679.305 156.312 678.512 156.767 678.151 156.767C677.79 156.767 677.018 156.312 676.431 155.762C675.652 155.025 675.248 152.473 674.915 146.216C674.667 141.519 674.455 136.615 674.448 135.329Z" fill="#2B2B2B"/>
<path d="M613.073 518.771C613.833 518.771 614.864 519.18 615.368 519.685C616.018 520.337 616.339 524.526 616.478 534.401C616.632 545.197 616.427 548.958 615.557 551.666C614.951 553.57 613.547 555.993 612.444 557.046C610.983 558.437 609.733 558.957 607.878 558.929C606.328 558.909 604.384 558.223 602.944 557.184C601.38 556.056 600.569 554.885 600.569 553.743C600.569 552.787 600.979 551.825 601.483 551.59C601.987 551.361 602.726 551.52 603.128 551.949C603.53 552.378 604.764 552.724 605.868 552.718C607.461 552.704 608.104 552.205 608.973 550.28C609.572 548.943 610.077 546.222 610.091 544.22C610.113 540.745 610.062 540.64 608.812 541.776C608.096 542.434 606.357 542.988 604.954 543.009C603.2 543.036 601.906 542.545 600.839 541.471C599.992 540.599 598.464 538.335 598.464 538.335C598.464 538.335 597.653 533.584 597.661 529.678C597.661 525.773 597.909 522.171 598.209 521.673C598.501 521.174 599.561 520.863 600.562 520.98C602.046 521.153 602.469 521.694 602.893 523.966C603.178 525.489 603.419 528.446 603.441 530.544C603.456 532.642 603.916 534.976 604.471 535.738C605.414 537.047 605.582 536.901 607.373 533.314C608.44 531.181 609.492 527.524 609.77 525.004C610.04 522.532 610.581 520.116 610.975 519.637C611.37 519.16 612.313 518.771 613.073 518.771ZM582.811 511.146C584.338 511.146 586.327 511.611 587.233 512.185C588.139 512.76 588.877 513.854 588.877 514.616C588.877 515.378 588.468 516.223 587.964 516.493C587.459 516.77 586.071 516.999 584.873 517.012C583.207 517.033 582.526 517.469 581.949 518.882C581.372 520.308 581.453 520.98 582.3 521.845C582.9 522.462 584.873 523.134 586.685 523.335C588.49 523.536 590.712 523.992 591.618 524.352C592.524 524.713 593.752 526.091 594.358 527.427C594.957 528.764 595.454 531.097 595.454 532.621C595.454 534.144 595.015 536.402 594.489 537.641C593.955 538.881 592.56 540.606 591.383 541.471C589.9 542.572 588.285 543.05 586.136 543.029C584.426 543.022 581.964 542.503 580.656 541.886C579.348 541.27 577.506 540.107 576.563 539.29C575.628 538.48 574.393 536.956 573.823 535.911C573.26 534.865 572.801 533.536 572.8 532.968C572.8 532.4 573.318 531.457 573.947 530.889C574.583 530.322 575.899 529.851 576.871 529.851C578.281 529.851 578.573 530.135 578.281 531.236C577.996 532.303 578.705 533.099 581.386 534.706C583.293 535.855 585.435 536.79 586.136 536.783C586.838 536.783 587.744 536.153 588.146 535.391C588.548 534.63 588.796 532.995 588.694 531.756C588.519 529.553 588.416 529.491 584.127 528.971C581.123 528.611 579.216 527.954 578.061 526.894C577.133 526.042 576.037 524.262 575.621 522.926C575.08 521.215 575.088 519.63 575.658 517.559C576.096 515.939 577.258 513.833 578.245 512.885C579.531 511.645 580.824 511.153 582.811 511.146ZM621.813 508.384C622.186 508.384 622.982 508.855 623.589 509.423C624.21 510.012 624.919 512.552 625.233 515.315C625.533 517.988 625.861 520.169 625.964 520.163C626.066 520.163 627.381 519.394 628.886 518.467C630.392 517.539 632.533 516.603 633.636 516.388C634.739 516.174 635.806 516.313 636.011 516.693C636.209 517.074 635.88 518.161 635.281 519.117C634.674 520.066 633.856 520.697 633.454 520.503C633.052 520.309 632.395 520.544 631.993 521.021C631.467 521.638 632.19 523.383 634.499 527.081C636.282 529.934 638.467 533.985 639.344 536.084C640.221 538.182 640.74 540.439 640.484 541.104C640.236 541.769 639.373 542.316 638.569 542.316C637.765 542.316 636.53 541.728 635.829 541.008C635.127 540.287 632.906 536.866 630.896 533.411C628.886 529.948 626.994 527.108 626.694 527.094C626.394 527.089 626.109 528.876 626.058 531.063C626.014 533.251 625.759 535.98 625.504 537.123C625.175 538.577 624.604 539.2 623.603 539.2C622.799 539.2 621.776 538.438 621.279 537.469C620.789 536.512 620.205 532.149 619.971 527.773C619.745 523.397 619.313 517.712 619.021 515.142C618.546 511.091 618.649 510.344 619.803 509.429C620.534 508.855 621.44 508.384 621.813 508.384ZM657.101 515.98C657.562 515.973 658.651 516.672 659.528 517.538C660.405 518.41 661.479 519.976 661.903 521.021C662.334 522.067 662.685 525.571 662.685 528.812C662.685 532.053 662.356 535.322 661.954 536.084C661.552 536.845 660.726 537.469 660.127 537.469C659.52 537.468 658.57 536.769 658.007 535.911C657.452 535.052 656.78 532.171 656.517 529.505C656.261 526.839 655.647 523.21 655.165 521.437C654.441 518.806 654.464 518.016 655.275 517.109C655.823 516.5 656.648 515.994 657.101 515.98ZM646.214 516.818C646.469 516.313 647.521 516.008 648.581 516.126C649.626 516.25 651.168 517.226 652.015 518.3C653.243 519.865 653.55 521.264 653.55 525.225C653.55 528.812 653.141 530.966 652.089 532.968C650.97 535.093 650.203 535.737 646.973 535.737L647.236 529.505C647.389 525.89 647.134 522.109 646.63 520.503C646.147 518.979 645.958 517.324 646.214 516.818ZM557.395 515.281C558.433 515.26 559.77 515.731 560.377 516.326C561.356 517.288 561.247 517.718 559.354 520.336C557.915 522.323 557.008 524.726 556.533 527.773C556.153 530.245 555.59 532.745 555.291 533.313C554.984 533.881 554.114 534.456 553.354 534.588C552.594 534.719 551.556 534.255 551.045 533.549C550.541 532.848 550.124 530.329 550.131 527.947C550.139 525.565 550.657 522.448 551.286 521.021C551.907 519.595 553.113 517.726 553.968 516.867C554.816 516.008 556.357 515.295 557.395 515.281ZM549.013 513.231C550.036 513.231 551.082 513.619 551.323 514.096C551.571 514.574 550.855 516.832 549.737 519.117C548.619 521.402 547.516 524.754 547.282 526.568C546.975 528.964 547.106 529.865 547.771 529.858C548.275 529.858 548.699 530.398 548.714 531.063C548.735 531.728 548.239 532.663 547.618 533.14C547.004 533.618 545.915 533.867 545.214 533.701C544.512 533.535 543.357 532.289 542.656 530.931C541.954 529.574 541.37 527.295 541.37 525.869C541.363 524.442 541.845 521.866 542.444 520.156C543.036 518.446 544.344 516.181 545.338 515.135C546.419 514.007 547.917 513.231 549.013 513.231Z" fill="#2B2B2B"/>
<path d="M380.579 139.796C382.27 137.984 385.464 135.843 387.666 135.042C390.038 134.172 393.301 133.801 395.673 134.122C397.875 134.422 401.439 135.212 403.591 135.873C406.424 136.754 408.195 138.195 409.987 141.087C411.348 143.288 414.431 147.231 416.834 149.843C420.918 154.286 421.198 154.967 421.228 160.351C421.248 164.804 420.717 166.896 418.876 169.608C416.513 173.07 416.503 173.14 418.385 175.612C419.426 176.983 420.267 178.674 420.237 179.365C420.21 180.199 421.114 180.432 422.95 180.065C424.461 179.765 429.536 178.544 434.21 177.363C440.106 175.862 447.633 172.64 458.734 166.856C467.542 162.262 478.123 156.868 482.257 154.877C487.241 152.465 491.255 151.214 494.208 151.164C498.032 151.104 498.882 151.474 500.214 153.796C501.665 156.318 501.635 156.698 499.713 159.3C498.572 160.841 496.09 162.853 494.208 163.783C492.316 164.704 489.413 165.585 487.762 165.735C486.11 165.895 483.408 167.216 481.756 168.677C480.104 170.148 474.699 174.041 469.744 177.343C464.79 180.636 458.484 184.468 455.731 185.859C452.978 187.25 447.223 189.682 442.939 191.253C436.022 193.805 435.151 194.406 435.191 196.627C435.221 197.998 436.292 202.502 437.574 206.635C438.865 210.758 440.887 216.051 442.068 218.393C443.249 220.735 444.22 223.997 444.22 225.648C444.22 227.3 443.699 229.661 443.069 230.902C442.438 232.143 441.317 233.494 440.566 233.904C439.465 234.515 439.545 235.055 440.967 236.807C441.928 237.997 445.761 240.92 449.475 243.311C453.459 245.883 456.482 248.585 456.842 249.916C457.182 251.157 456.882 253.969 456.171 256.171C455.461 258.372 453.719 261.475 452.308 263.056C450.886 264.637 447.243 267.519 444.22 269.45C439.495 272.463 438.945 273.113 440.366 274.074C441.277 274.684 443.639 277.886 445.631 281.189C447.623 284.491 449.245 288.434 449.235 289.945C449.225 291.867 448.474 293.078 446.722 293.948C444.7 294.959 443.689 294.939 441.467 293.868C439.956 293.138 434.1 289.755 428.455 286.363C422.809 282.97 417.965 279.628 417.694 278.937C417.414 278.247 417.865 276.105 418.695 274.184C419.526 272.252 419.857 270.661 419.446 270.641C419.036 270.621 421.808 267.809 425.602 264.387C430.757 259.753 432.349 257.732 431.858 256.421C431.498 255.46 429.966 254.189 428.455 253.609C426.943 253.028 424.801 252.788 423.7 253.088C422.599 253.379 417.644 257.031 412.69 261.194C407.735 265.367 401.999 269.771 399.937 270.981C397.875 272.192 396.204 273.633 396.224 274.184C396.234 274.734 393.421 276.716 389.958 278.587C386.495 280.458 382.761 282.09 381.66 282.21C380.559 282.33 376.955 283.35 373.652 284.481C370.349 285.602 364.043 287.073 351.631 288.945L350.45 296.08C349.629 301.043 348.638 303.735 347.197 304.956C345.625 306.277 344.634 306.467 343.123 305.707C342.022 305.156 340.67 303.805 340.12 302.705C339.569 301.604 339.009 296.62 338.618 282.54L348.628 279.057C354.133 277.146 361.11 274.064 364.143 272.202C367.166 270.351 374.123 265.087 379.598 260.504C385.073 255.92 390.849 250.366 395.333 244.162L389.998 243.161C387.065 242.611 384.042 241.71 383.281 241.16C382.391 240.519 382.09 239.078 382.431 237.157C382.721 235.506 384.473 229.551 386.314 223.927C388.156 218.313 389.437 213.46 389.167 213.169C388.887 212.869 385.063 214.64 380.659 217.102C376.255 219.574 367.016 223.667 360.139 226.199C348.258 230.582 346.896 230.852 333.113 231.653C323.364 232.213 317.939 232.143 316.597 231.443C315.496 230.862 313.795 229.661 312.814 228.771C311.833 227.88 311.042 226.139 311.062 224.898C311.082 223.657 311.432 222.446 311.843 222.216C312.253 221.976 318.219 220.855 325.106 219.744C331.982 218.623 340.991 216.842 345.125 215.791C349.249 214.74 355.335 212.519 358.638 210.858C361.941 209.196 368.918 205.023 374.153 201.581C379.378 198.128 387.115 192.564 391.339 189.212C395.563 185.859 399.037 182.437 399.057 181.616C399.077 180.786 399.807 179.435 400.678 178.614C401.549 177.784 402.25 176.773 402.22 176.362C402.2 175.952 400.938 175.882 399.427 176.222C397.915 176.553 395.323 178.414 393.671 180.355C392.02 182.287 389.878 184.268 388.917 184.749C387.876 185.269 386.344 185.209 385.163 184.618C383.829 183.951 383.161 183.951 383.161 184.618C383.161 185.169 381.47 187.441 379.408 189.672C376.905 192.361 374.82 193.698 373.152 193.685C371.77 193.675 370.199 193.185 369.648 192.614C368.968 191.894 367.456 193.315 364.894 197.098C362.832 200.14 359.679 203.532 357.887 204.633C356.095 205.724 353.733 206.635 352.632 206.635C351.531 206.645 349.619 205.974 348.378 205.143C346.876 204.136 346.126 202.632 346.126 200.63C346.126 198.979 346.576 196.497 347.127 195.126C347.677 193.745 347.897 192.624 347.627 192.624C347.347 192.624 344.875 193.525 342.122 194.626C339.369 195.727 335.766 196.627 334.114 196.627C332.463 196.627 330.441 195.947 329.61 195.126C328.779 194.296 328.108 191.844 328.108 189.622C328.108 187.421 328.779 184.268 329.61 182.617C330.541 180.746 332.342 179.235 334.364 178.594C336.156 178.034 339.419 177.603 341.621 177.633C344.244 177.663 346.186 177.063 347.237 175.892C348.118 174.911 350.039 171.519 351.491 168.357C353.923 163.053 354.624 162.382 360.389 159.73C363.833 158.159 368.337 156.358 370.399 155.727C373.842 154.687 374.293 154.116 375.824 148.842C376.795 145.5 378.787 141.707 380.579 139.796Z" fill="#2B2B2B"/>
<path d="M308.339 302.705C308.48 302.154 313.314 299.452 319.1 296.7C324.875 293.948 329.72 291.697 329.86 291.697C330 291.697 330.11 292.147 330.11 292.697C330.11 293.248 326.617 295.329 322.353 297.311C318.089 299.302 313.134 301.554 311.342 302.314C309.541 303.085 308.199 303.255 308.339 302.705Z" fill="#2B2B2B"/>
<path d="M318.349 308.819C321.242 306.677 325.156 303.305 327.047 301.314C328.949 299.332 330.861 297.701 331.301 297.701C331.752 297.701 332.132 298.041 332.152 298.451C332.172 298.862 330.26 301.013 327.898 303.225C325.536 305.447 321.802 308.589 319.6 310.23C317.398 311.861 315.316 313.653 314.966 314.203C314.575 314.833 314.115 314.743 313.715 313.963C313.334 313.202 315.146 311.191 318.349 308.819Z" fill="#2B2B2B"/>
<path d="M323.104 318.216C323.104 317.936 325.246 314.363 327.858 310.28C330.471 306.187 332.893 302.805 333.243 302.775C333.584 302.735 333.654 303.495 333.393 304.456C333.133 305.417 331.161 308.799 329.019 311.961C326.867 315.124 324.655 317.936 324.105 318.216C323.554 318.486 323.104 318.486 323.104 318.216Z" fill="#2B2B2B"/>
<path d="M398.582 139.315C397.341 139.054 394.748 138.834 392.826 138.844C390.904 138.844 387.801 139.625 385.94 140.576C384.078 141.526 381.986 143.438 381.295 144.809C380.594 146.19 379.423 149.262 378.673 151.654C377.922 154.045 376.41 156.807 375.309 157.788C374.208 158.769 370.385 160.52 366.801 161.681C363.218 162.852 359.284 164.483 358.043 165.314C356.802 166.144 354.439 169.747 352.788 173.329C350.656 177.953 348.914 180.265 346.782 181.335C345.13 182.166 341.527 182.836 338.774 182.836C334.7 182.836 333.489 183.257 332.258 185.088C331.427 186.329 330.757 188.35 330.757 189.591C330.767 190.832 331.327 192.073 332.018 192.363C332.708 192.644 336.532 191.743 340.526 190.362C344.72 188.901 348.434 188.16 349.324 188.591C350.165 189.001 351.066 189.902 351.326 190.592C351.577 191.283 351.056 193.985 350.175 196.596C348.824 200.559 348.784 201.46 349.925 202.04C350.676 202.411 352.537 201.96 354.069 201.04C355.6 200.109 358.864 196.306 361.326 192.594C363.788 188.881 366.361 185.849 367.051 185.859C367.742 185.869 369.314 186.769 370.555 187.86L372.807 189.841C379.013 181.305 381.485 178.833 382.316 178.833C383.147 178.833 384.048 179.284 384.318 179.834C384.588 180.385 385.269 180.835 385.819 180.835C386.37 180.835 388.012 178.924 389.473 176.582C390.934 174.24 392.616 172.039 393.227 171.688C393.827 171.328 395.118 171.218 396.079 171.438C397.511 171.758 397.871 171.048 398.051 167.575C398.171 165.234 398.281 160.62 398.301 157.318C398.331 151.844 398.532 151.293 400.584 151.063C402.505 150.853 402.836 150.223 402.836 146.81C402.836 144.609 402.385 142.807 401.835 142.807C401.284 142.807 400.834 142.137 400.834 141.306C400.834 140.476 399.823 139.585 398.582 139.315Z" fill="white"/>
<path d="M411.554 152.905L408.311 149.492L407.07 152.154C406.399 153.615 405.278 155.046 404.587 155.326C403.767 155.667 403.246 158.579 403.086 163.833C402.906 169.647 403.176 171.858 404.087 171.948C404.778 172.008 406.009 171.958 406.84 171.828C407.67 171.688 409.572 170.627 411.084 169.457C412.595 168.286 414.287 166.314 414.837 165.073C415.398 163.833 415.608 161.361 415.328 159.569C415.038 157.778 413.336 154.786 411.554 152.905Z" fill="white"/>
<path d="M495.685 156.457C495.875 155.216 495.144 154.826 492.682 154.866C490.89 154.896 487.697 155.687 485.595 156.617C482.733 157.888 481.852 158.819 482.092 160.32C482.362 161.971 483.123 162.291 486.426 162.141C488.628 162.051 491.551 161.101 492.932 160.04C494.304 158.979 495.545 157.368 495.685 156.457Z" fill="white"/>
<path d="M479.419 163.823C479.139 163.272 478.348 162.842 477.668 162.862C476.977 162.892 468.759 166.855 459.4 171.688C447.208 177.983 439.891 181.085 433.625 182.656C428.801 183.857 422.274 184.858 419.111 184.888C415.938 184.908 411.774 184.918 409.853 184.908C407.921 184.898 404.878 184.648 403.096 184.357C400.534 183.947 399.773 184.207 399.523 185.588C399.342 186.549 395.859 190.242 391.765 193.784C387.671 197.337 380.044 203.011 374.819 206.404C369.584 209.796 363.058 213.719 360.305 215.11C357.552 216.511 352.147 218.572 348.293 219.703C344.44 220.834 338.694 222.235 335.531 222.816C330.787 223.676 329.776 224.217 329.776 225.868C329.776 227.709 330.246 227.819 335.531 227.299C338.694 226.989 345.791 225.307 351.296 223.556C356.802 221.815 367.722 217.121 375.57 213.118C387.561 207.014 390.084 206.053 391.455 207.104C392.756 208.105 392.966 209.466 392.496 213.859C392.166 216.891 390.584 223.416 388.962 228.37C387.351 233.323 386.1 237.476 386.18 237.606C386.26 237.736 389.933 238.127 394.338 238.477C400.013 238.927 404.958 238.627 411.354 237.416C416.309 236.485 423.916 234.524 428.27 233.053C433.856 231.162 436.518 229.711 437.279 228.139C438.18 226.298 437.819 224.697 435.217 219.133C433.475 215.4 431.343 209.766 430.462 206.604C429.581 203.441 428.871 198.378 428.871 195.346C428.871 190.152 429.021 189.811 431.623 189.241C433.135 188.911 438.65 187.009 443.885 185.018C449.11 183.027 456.547 179.334 460.401 176.812C464.255 174.3 470.221 170.567 473.664 168.536C477.097 166.494 479.69 164.373 479.419 163.823Z" fill="white"/>
<path d="M411.374 177.082C409.983 176.392 408.041 175.831 407.05 175.831C406.059 175.831 404.708 176.732 404.047 177.833C403.386 178.934 403.066 180.285 403.346 180.835C403.617 181.385 406.099 181.836 408.852 181.836C412.935 181.836 413.856 181.515 413.876 180.084C413.896 179.124 412.775 177.773 411.374 177.082Z" fill="white"/>
<path d="M326.272 225.367C325.912 224.297 324.4 223.886 321.017 223.946C318.395 223.986 315.602 224.257 314.811 224.527C314.01 224.807 313.43 225.558 313.52 226.198C313.6 226.848 314.931 227.969 316.473 228.71C318.114 229.49 320.286 229.751 321.768 229.33C323.139 228.94 324.831 228.229 325.521 227.749C326.202 227.269 326.542 226.198 326.272 225.367Z" fill="white"/>
<path d="M436.858 241.359L432.344 237.116L428.35 238.577C426.158 239.388 420.313 240.899 415.358 241.949C410.403 243 404.157 243.861 401.484 243.871C396.75 243.881 396.6 243.971 396.189 247.133C395.859 249.635 393.737 252.357 387.041 258.902C382.246 263.575 374.268 270.14 369.314 273.472C364.359 276.815 358.503 280.127 356.301 280.848C354.099 281.568 351.847 282.599 351.296 283.15C350.636 283.81 351.97 283.9 355.3 283.42C358.053 283.019 362.777 282.059 365.81 281.278C368.833 280.498 374.919 278.146 379.323 276.054C383.727 273.963 390.484 270.17 394.338 267.628C398.191 265.076 405.398 259.592 410.353 255.419C415.328 251.236 420.703 247.574 422.365 247.233C424.016 246.893 426.038 246.843 426.869 247.113C427.69 247.383 429.642 249.365 431.203 251.496C433.175 254.208 433.886 256.15 433.515 257.891C433.235 259.272 431.163 262.534 428.931 265.146C426.689 267.758 425.087 270.35 425.367 270.901C425.638 271.451 426.539 271.901 427.369 271.901C428.19 271.901 430.552 270.63 432.624 269.079C434.686 267.518 438.85 264.426 441.883 262.194C444.906 259.973 448.169 256.74 449.14 255.019L450.892 251.887C443.515 247.013 439.341 243.691 436.858 241.359Z" fill="white"/>
<path d="M433.375 276.865C431.173 275.804 428.701 274.964 427.87 275.004C427.049 275.034 425.718 275.294 424.917 275.574C424.116 275.844 423.556 276.715 423.666 277.495C423.776 278.276 427.7 281.168 432.374 283.92C437.059 286.672 441.333 288.924 441.883 288.924C442.434 288.924 442.904 287.903 442.924 286.672C442.944 285.431 441.703 283.15 440.172 281.598C438.63 280.047 435.577 277.916 433.375 276.865Z" fill="white"/>
<path d="M345.09 287.513C344.65 285.912 343.809 284.44 343.218 284.24C342.638 284.04 341.767 284.18 341.307 284.561C340.836 284.941 340.516 288.213 340.606 291.836C340.686 295.519 341.357 299.311 342.117 300.432C343.108 301.873 343.669 302.083 344.139 301.183C344.5 300.492 345.04 297.79 345.341 295.178C345.641 292.556 345.531 289.114 345.09 287.513Z" fill="white"/>
<path d="M495.498 46.0636C494.767 44.8227 494.417 43.3616 494.717 42.8112C495.017 42.2608 495.578 41.7905 495.968 41.7704C496.349 41.7504 499.272 43.4417 502.465 45.5232C505.648 47.6147 508.24 49.8763 508.22 50.5669C508.2 51.2574 507.73 52.0379 507.179 52.3181C506.629 52.5883 504.076 51.8078 501.504 50.5669C498.931 49.3259 496.229 47.3045 495.498 46.0636Z" fill="#2B2B2B"/>
<path d="M560.45 52.138C561.712 50.9471 564.754 48.8156 567.237 47.4045C569.709 45.9935 572.532 44.8327 573.493 44.8227C574.454 44.8227 575.245 45.263 575.245 45.8134C575.245 46.3638 572.202 48.8056 568.488 51.2373C564.774 53.6791 560.941 55.9308 559.98 56.241C558.939 56.5812 558.218 56.311 558.198 55.5705C558.188 54.88 559.199 53.3389 560.45 52.138Z" fill="#2B2B2B"/>
<path d="M517.789 62.8458C519.271 60.9344 521.853 58.3425 523.525 57.0916C525.196 55.8407 527.719 54.8099 529.13 54.7999C530.542 54.7799 533.504 55.5004 535.707 56.3911C537.909 57.2817 540.992 59.2031 542.553 60.6642C544.115 62.1253 546.026 64.5671 546.807 66.0782C547.588 67.5893 548.209 70.7416 548.199 73.0833C548.189 75.425 547.358 79.1377 546.357 81.3393C545.356 83.5409 542.894 86.8033 540.872 88.5946C537.568 91.5267 536.597 91.8469 530.952 91.8469C526.458 91.8369 523.775 91.2765 521.443 89.8455C519.651 88.7447 517.299 86.383 516.218 84.5917C515.137 82.8003 513.976 79.7581 513.635 77.8367C513.305 75.9053 513.495 72.5329 514.066 70.3313C514.636 68.1297 516.308 64.7672 517.789 62.8458Z" fill="#2B2B2B"/>
<path d="M566.987 81.4394C564.374 80.3185 563.413 79.3879 563.814 78.3371C564.144 77.5065 564.704 76.836 565.065 76.826C565.435 76.826 568.438 77.5365 571.741 78.3971C575.044 79.2578 578.328 80.4987 579.038 81.1591C579.759 81.8096 580.319 82.7903 580.309 83.3407C580.289 83.9612 578.448 84.0913 575.505 83.691C572.882 83.3307 569.049 82.31 566.987 81.4394Z" fill="#2B2B2B"/>
<path d="M486.88 82.1899C490.613 80.4586 494.297 78.8475 495.058 78.5973C495.828 78.3471 496.819 78.6373 497.26 79.2378C497.71 79.8482 497.46 81.009 496.699 81.8396C495.948 82.6602 492.145 84.9119 488.251 86.8433C483.496 89.195 480.824 90.0156 480.133 89.3451C479.573 88.7947 479.332 87.6639 479.603 86.8433C479.873 86.0127 483.146 83.9212 486.88 82.1899Z" fill="#2B2B2B"/>
<path d="M499.212 102.905C501.404 99.9028 503.706 97.1208 504.326 96.7205C504.947 96.3102 505.888 96.2001 506.418 96.4703C506.949 96.7505 507.349 97.5011 507.319 98.1615C507.279 98.812 505.438 101.714 503.215 104.606C500.993 107.498 498.501 109.86 497.67 109.86C496.839 109.86 495.958 109.52 495.698 109.11C495.438 108.699 497.019 105.907 499.212 102.905Z" fill="#2B2B2B"/>
<path d="M547.708 110.861C546.377 106.728 545.516 103.015 545.796 102.605C546.087 102.194 546.857 101.834 547.518 101.814C548.179 101.784 549.25 102.345 549.89 103.065C550.541 103.776 551.842 107.058 552.793 110.36C553.744 113.663 554.224 117.155 553.874 118.116C553.44 119.284 552.71 119.617 551.682 119.117C550.831 118.707 549.049 114.984 547.708 110.861Z" fill="#2B2B2B"/>
<path d="M519.181 114.864C519.811 110.19 520.802 106.057 521.393 105.677C521.983 105.297 522.904 105.207 523.435 105.477C523.965 105.757 524.356 107.749 524.296 109.92C524.246 112.092 523.635 115.955 522.944 118.516C522.254 121.078 521.123 123.44 520.432 123.77C519.741 124.1 518.92 124.14 518.61 123.87C518.3 123.59 518.56 119.547 519.181 114.864Z" fill="#2B2B2B"/>
<path d="M434.039 111.621C435.13 110.12 437.512 108.469 439.324 107.959C441.136 107.458 443.178 106.998 443.868 106.948C444.559 106.898 446.181 107.869 447.472 109.11C449.774 111.311 449.894 111.321 453.227 109.61C455.099 108.639 457.301 107.839 458.132 107.819C458.953 107.809 460.534 108.759 461.635 109.94C463.097 111.501 463.637 113.463 463.637 117.225C463.637 121.058 463.267 122.369 462.186 122.369C461.295 122.369 460.324 120.668 459.684 117.956C459.103 115.524 458.072 113.393 457.381 113.202C456.691 113.012 454.669 114.193 452.877 115.824C451.085 117.456 448.833 118.807 447.872 118.827C446.771 118.847 446.121 118.116 446.121 116.865C446.121 115.764 445.89 114.183 445.62 113.363C445.34 112.532 443.988 111.862 442.617 111.862C441.236 111.862 438.733 112.872 437.042 114.113C435.01 115.594 433.639 116.025 433.008 115.364C432.397 114.724 432.758 113.383 434.039 111.621Z" fill="#2B2B2B"/>
<path d="M297.878 124.441C297.828 123.66 299.029 122.079 300.541 120.938C302.052 119.797 304.124 118.867 305.135 118.867C306.156 118.867 308.568 119.537 310.49 120.368C313.163 121.509 313.994 122.469 313.994 124.371C313.994 125.742 313.883 126.882 313.743 126.902C313.603 126.923 312.142 126.252 310.49 125.411C308.839 124.571 306.697 123.88 305.736 123.88C304.775 123.87 303.644 124.431 303.233 125.121C302.823 125.802 302.012 128.173 301.431 130.375C300.781 132.857 299.74 134.468 298.679 134.628C297.658 134.778 296.216 133.577 295.075 131.626C294.024 129.835 292.443 128.033 291.572 127.623C290.521 127.133 289.01 127.693 287.218 129.234C285.706 130.545 283.564 133.247 282.463 135.249C281.362 137.26 279.901 138.891 279.21 138.891C278.519 138.881 277.949 137.64 277.929 136.129C277.909 134.538 279.3 131.486 281.252 128.874C283.094 126.392 285.356 124.03 286.287 123.62C287.208 123.21 289.09 122.87 290.471 122.87C291.842 122.87 294.094 123.54 295.476 124.371C297.608 125.652 297.968 125.662 297.878 124.441Z" fill="#2B2B2B"/>
<path d="M520.085 69.2453C520.845 67.7341 523.148 65.0122 525.199 63.2008C527.962 60.7591 529.484 60.0786 531.075 60.5789C532.256 60.9492 534.809 62.03 536.731 62.9907C538.943 64.0915 540.905 66.173 542.056 68.6148C543.547 71.7771 543.697 73.2382 542.886 76.5005C542.266 78.9823 540.514 81.7444 538.302 83.7558C535.7 86.1276 533.778 87.0082 531.225 87.0082C529.303 87.0082 526.481 86.3978 524.969 85.6472C523.338 84.8366 521.506 82.605 520.465 80.1432C519.504 77.8615 518.713 75.0995 518.713 73.9987C518.713 72.8979 519.334 70.7564 520.085 69.2453Z" fill="#EA9B1B"/>
<path d="M528.574 37.3211C528.084 34.7092 527.894 32.0073 528.164 31.3168C528.424 30.6262 528.945 30.0458 529.305 30.0258C529.675 29.9958 530.476 30.5562 531.087 31.2767C531.687 31.9872 532.708 34.7092 533.339 37.3211C533.969 39.933 534.48 42.9753 534.48 44.0761C534.48 45.1869 533.809 46.0775 532.979 46.0775C532.148 46.0775 531.027 45.1769 530.476 44.0761C529.926 42.9753 529.075 39.933 528.574 37.3211Z" fill="#2B2B2B"/>
</svg>
